<svg width="80" height="80" viewBox="0 0 80 80" fill="none" xmlns="http://www.w3.org/2000/svg">
<rect width="80" height="80" rx="40" fill="#041461"/>
<path d="M27.9627 23.0305C29.673 26.3606 33.4484 28.1152 34.1889 28.4467C32.9946 27.4573 31.6285 26.0935 30.4083 24.2649C29.6375 23.1097 29.1807 22.1484 28.997 21.7458C28.4254 20.4959 27.6924 18.4964 27.4592 15.8508C27.3503 16.1217 27.2163 16.4983 27.106 16.9594C27.0349 17.2576 26.7869 18.3736 26.955 19.8314C26.955 19.8314 27.1378 21.4239 27.9634 23.0305H27.9627ZM28.2907 37.4906C30.0144 37.418 31.3442 36.9925 32.0209 36.8105C33.2122 36.49 34.9656 36.2296 37.3275 36.5722C37.1157 36.3021 36.7626 35.9247 36.2302 35.6516C35.5253 35.289 34.8737 35.2971 33.7838 35.3238C32.0394 35.3667 31.1672 35.3881 30.9629 35.3993C29.602 35.4762 28.4417 35.5628 26.8535 35.585C26.3885 35.5917 25.7407 35.5946 24.9136 35.4244C24.3161 35.3016 23.8341 35.1314 23.5024 34.9959C23.729 35.3778 24.1503 35.9787 24.8633 36.5078C25.349 36.8682 25.7947 37.065 26.0479 37.1627C26.9439 37.509 27.7398 37.5135 28.2914 37.4906H28.2907ZM31.2146 30.84C29.3843 29.9542 26.0043 27.9768 23.6275 24.0888C22.8034 22.7404 22.2681 21.438 21.9134 20.3102C21.7972 21.3914 21.7594 23.3147 22.7198 25.3231C25.0099 30.1133 30.7726 30.7948 31.2139 30.84H31.2146ZM27.2067 34.4676C28.2337 34.5134 29.6938 34.4905 31.4412 34.1649C30.603 34.1249 29.4605 34.0243 28.1263 33.7616C26.8283 33.5063 25.5785 33.2598 24.1939 32.5775C23.2951 32.1343 21.8742 31.2781 20.5015 29.6426C20.6925 30.4219 21.1634 31.7983 22.3918 32.8795C22.5006 32.9749 22.9448 33.359 23.6268 33.7105C24.0451 33.9259 25.0165 34.3691 27.206 34.4661L27.2067 34.4676ZM30.2313 33.1829C33.6454 34.1545 36.0821 34.842 36.8099 35.047C35.3121 33.7039 33.9364 32.9572 32.9346 32.5198C32.3408 32.2608 32.3748 32.3267 29.3761 31.2425C27.4821 30.5573 26.9276 30.3353 26.5055 30.1606C24.9936 29.5338 24.2376 29.2201 23.4372 28.6924C22.7797 28.2595 21.8268 27.521 20.8798 26.3059C21.1108 27.2575 21.6039 28.6932 22.7701 29.9586C24.1192 31.4224 26.1746 32.0292 30.2313 33.1829ZM52.0041 23.0305C52.8289 21.4239 53.0125 19.8314 53.0125 19.8314C53.1799 18.3736 52.9326 17.2576 52.8615 16.9594C52.7512 16.4983 52.6172 16.1217 52.5083 15.8508C52.2751 18.4964 51.5421 20.4959 50.9705 21.7458C50.7861 22.1484 50.33 23.1097 49.5592 24.2649C48.339 26.0935 46.9722 27.4573 45.7786 28.4467C46.5183 28.1152 50.2945 26.3606 52.0048 23.0305H52.0041ZM48.7529 30.84C49.1949 30.7948 54.9576 30.1133 57.247 25.3231C58.2073 23.314 58.1703 21.3914 58.0533 20.3102C57.6987 21.438 57.1633 22.7404 56.3393 24.0888C53.9625 27.9768 50.5825 29.9542 48.7522 30.84H48.7529ZM28.9223 39.4235C30.6852 39.3732 31.6492 38.0078 31.744 37.8687C31.0428 38.0796 30.1262 38.2861 29.0407 38.3564C27.8864 38.4311 26.8979 38.329 26.1479 38.1958C26.279 38.3475 27.2859 39.4701 28.9215 39.4235H28.9223ZM53.4612 30.1606C53.0392 30.3353 52.4846 30.558 50.5906 31.2425C47.5919 32.3274 47.626 32.2608 47.0322 32.5198C46.0304 32.9572 44.6554 33.7039 43.1568 35.047C43.8847 34.842 46.3214 34.1545 49.7354 33.1829C53.7915 32.0284 55.8476 31.4216 57.1967 29.9586C58.3628 28.6932 58.8559 27.2575 59.0869 26.3059C58.14 27.521 57.187 28.2595 56.5295 28.6924C55.7284 29.2201 54.9732 29.5338 53.4612 30.1606ZM38.0798 29.9912C38.0694 30.3094 38.059 30.5595 38.0524 30.7082C38.0524 30.7082 37.9961 31.8693 38.1975 32.0958C38.2834 32.1927 38.3848 32.2579 38.3848 32.2579C38.4885 32.3141 38.5921 32.3711 38.6958 32.4273C38.6877 32.1017 38.6936 31.6414 38.7595 31.0931C38.792 30.8237 38.8239 30.558 38.9031 30.2583C38.9964 29.9075 39.1948 29.3622 39.6598 28.762C39.4503 28.8219 39.0882 28.8952 38.658 28.819C38.139 28.7265 37.6474 28.4386 37.6748 28.3468C37.6873 28.3054 37.7962 28.3306 38.0339 28.3091C38.0339 28.3091 38.4766 28.2699 38.9475 28.0538C39.029 28.0168 39.086 27.985 39.5806 27.6423C40.2847 27.1547 40.4091 27.0525 40.4921 27.0999C40.5505 27.1332 40.6431 27.2738 40.3973 28.0634C40.6105 27.9679 40.9148 27.8355 41.2858 27.6853C42.0714 27.3678 42.4749 27.2168 42.874 27.1939C43.1664 27.1776 43.6788 27.2042 44.3178 27.5484C44.3533 27.313 44.3748 26.9023 44.1408 26.5515C43.7714 25.9973 43.0043 25.9551 42.5149 25.9277C41.8433 25.8907 41.7026 26.0431 39.8686 26.3436C39.2385 26.4465 38.815 26.5005 38.3663 26.2844C37.9613 26.089 37.7451 25.7738 37.6755 25.6635C37.2942 25.0567 37.4349 24.4173 37.4674 24.2841C37.3556 24.3959 36.8373 24.9368 36.8433 25.7575C36.8492 26.5116 37.2949 27.2139 37.9961 27.5905C37.8362 27.5706 37.1017 27.461 36.673 26.835C36.5338 26.6315 36.4642 26.4287 36.4271 26.2681C35.8918 27.35 36.0044 28.5585 36.6907 29.2963C37.1735 29.815 37.7991 29.9497 38.0805 29.9912H38.0798ZM40.7157 35.0477C39.9108 37.1635 40.4284 39.1171 40.5394 39.5071C41.3073 42.2119 43.684 44.3136 46.1067 44.6917C46.3229 44.725 46.5057 44.7405 46.639 44.7472C45.4166 44.1404 44.5992 43.4078 44.1186 42.9082C43.5026 42.2681 42.2283 40.9072 41.9003 38.7767C41.8241 38.2809 41.6782 37.2589 42.0514 36.0556C42.4904 34.6422 43.4019 33.7682 44.169 33.0327C44.5599 32.6582 45.1182 32.2534 46.2355 31.4453C47.7548 30.3464 48.0495 30.211 49.1846 29.3799C50.487 28.426 51.1385 27.9487 51.8308 27.2634C52.3565 26.7432 53.3953 25.6998 54.175 24.165C55.2523 22.0441 55.3397 19.9617 55.259 18.6481C55.0672 19.4288 54.7229 20.5307 54.0743 21.7466C53.3502 23.103 52.5942 23.994 51.9064 24.7444C51.2585 25.4519 50.2315 26.4946 48.8351 27.5965C48.6855 27.7141 48.3435 27.962 47.6601 28.4601C45.6891 29.8964 45.1234 30.2768 44.6725 30.6143C43.1813 31.728 41.5012 32.9823 40.7149 35.0477H40.7157ZM42.1543 28.9137C42.4742 28.4971 42.811 28.2122 43.0583 28.0309C42.8155 28.0279 42.4171 28.0582 42.0032 28.2714C41.214 28.6769 40.6298 29.6086 40.7556 30.5765C40.846 31.2736 41.2717 31.7302 41.4531 31.9041C41.3665 31.5445 41.2732 30.9177 41.4738 30.1984C41.6449 29.5849 41.9544 29.1742 42.1543 28.9137ZM28.0893 27.2634C28.7816 27.9487 29.4331 28.426 30.7355 29.3799C31.8706 30.211 32.1653 30.3464 33.6846 31.4453C34.8019 32.2534 35.3609 32.6575 35.7511 33.0327C36.5182 33.7682 37.4297 34.6422 37.8687 36.0556C38.2419 37.2582 38.0961 38.2809 38.0198 38.7767C37.6918 40.9072 36.4175 42.2681 35.8015 42.9082C35.321 43.4078 34.5028 44.1404 33.2811 44.7472C33.4144 44.7398 33.5973 44.725 33.8135 44.6917C36.2369 44.3143 38.6129 42.2119 39.3807 39.5071C39.4917 39.1171 40.0093 37.1635 39.2045 35.0477C38.4181 32.9816 36.7381 31.7273 35.2469 30.6143C34.7953 30.2768 34.2296 29.8964 32.2593 28.4601C31.5759 27.962 31.2338 27.7141 31.0843 27.5965C29.6878 26.4946 28.6609 25.4519 28.013 24.7444C27.3252 23.994 26.5692 23.103 25.8451 21.7466C25.1965 20.5307 24.8522 19.4288 24.6604 18.6481C24.5797 19.9617 24.6663 22.0441 25.7444 24.165C26.524 25.6998 27.5628 26.7432 28.0885 27.2634H28.0893ZM46.6945 39.0964C45.9341 38.753 44.922 38.2424 43.7877 37.4994C43.8239 37.757 43.9106 38.1899 44.149 38.6679C44.8968 40.1679 46.4317 40.6904 46.8034 40.8169C47.4246 41.0286 47.9236 41.0634 48.3264 41.0885C49.1194 41.1389 50.5114 41.107 52.2144 40.4062C51.5428 40.4077 50.578 40.3537 49.4511 40.091C48.3324 39.8298 47.5334 39.4746 46.6938 39.0957L46.6945 39.0964ZM47.4002 42.3717C46.2007 42.1342 45.4329 41.4711 45.056 41.1374C44.109 40.2982 43.6788 39.345 43.493 38.8448C43.3878 39.1645 43.2161 39.8401 43.4174 40.6334C43.6818 41.6739 44.417 42.243 44.7783 42.5227C45.0827 42.758 46.2725 43.6483 47.931 43.4181C49.5415 43.1946 50.4403 42.075 50.6203 41.8411C50.213 42.0639 48.9587 42.6803 47.3994 42.3717H47.4002ZM50.9268 38.3579C49.8413 38.2876 48.9247 38.0811 48.2235 37.8702C48.3183 38.0093 49.2831 39.3746 51.0453 39.425C52.6808 39.4716 53.6878 38.3497 53.8189 38.1973C53.0688 38.3305 52.0804 38.4326 50.926 38.3579H50.9268ZM41.3302 42.5175C41.5397 43.1628 42.0506 44.4416 43.2583 45.616C44.4281 46.7534 45.675 47.2315 46.3206 47.4298C46.4391 47.2847 46.6057 47.0442 46.7175 46.712C46.816 46.4211 46.8374 46.1643 46.8382 45.9882C46.2266 45.8935 45.4521 45.7048 44.6192 45.3141C42.8621 44.4897 41.8263 43.2272 41.3295 42.5175H41.3302ZM53.1147 35.5865C51.5258 35.5643 50.3655 35.4777 49.0054 35.4007C48.801 35.3889 47.9288 35.3674 46.1844 35.3252C45.0945 35.2986 44.4429 35.2905 43.7381 35.6531C43.2064 35.9269 42.8525 36.3036 42.6407 36.5737C45.0027 36.2303 46.756 36.4915 47.9473 36.8119C48.6241 36.994 49.9546 37.4195 51.6776 37.492C52.2292 37.515 53.0251 37.5113 53.921 37.1642C54.1743 37.0665 54.62 36.8697 55.1057 36.5093C55.8187 35.9802 56.2408 35.3793 56.4666 34.9974C56.1342 35.1321 55.6529 35.303 55.0554 35.4259C54.2283 35.5961 53.5804 35.5931 53.1155 35.5865H53.1147ZM55.7728 32.579C54.389 33.2613 53.1392 33.5078 51.8405 33.7631C50.5062 34.0258 49.3638 34.1264 48.5256 34.1664C50.273 34.4912 51.7331 34.5142 52.7601 34.469C54.9495 34.3714 55.9209 33.9288 56.3393 33.7135C57.0212 33.362 57.4654 32.9779 57.5743 32.8824C58.8026 31.8005 59.2735 30.4248 59.4646 29.6456C58.0918 31.281 56.6702 32.1372 55.7721 32.5805L55.7728 32.579ZM38.638 42.5175C38.142 43.2265 37.1054 44.4897 35.3484 45.3141C34.5154 45.7048 33.7409 45.8942 33.1293 45.9882C33.1301 46.1643 33.1515 46.4211 33.25 46.712C33.3626 47.045 33.5284 47.2847 33.6469 47.4298C34.2925 47.2315 35.5394 46.7534 36.7092 45.616C37.9169 44.4416 38.4278 43.1621 38.6373 42.5175H38.638ZM38.9024 44.4068C39.0008 43.7918 39.0134 43.2657 39.0031 42.8824C38.6988 43.7223 38.1197 44.9944 37.0121 46.2583C36.1547 47.2366 35.2647 47.8856 34.5924 48.2986C34.7619 48.5531 35.0233 48.8854 35.4054 49.2058C35.7341 49.4811 36.054 49.6646 36.3065 49.7853C37.2897 48.5568 37.8695 47.4327 38.2093 46.6491C38.7173 45.4783 38.8587 44.6791 38.9024 44.4068ZM42.9554 46.2583C41.8478 44.9944 41.2687 43.7223 40.9644 42.8824C40.9541 43.2649 40.9667 43.7911 41.0651 44.4068C41.1088 44.6791 41.2502 45.4783 41.7582 46.6491C42.098 47.4327 42.6778 48.5576 43.661 49.7853C43.9135 49.6646 44.2334 49.4811 44.5621 49.2058C44.9442 48.8854 45.2056 48.5531 45.3751 48.2986C44.7028 47.8856 43.8128 47.2366 42.9554 46.2583ZM36.6589 40.5143C36.8603 39.721 36.6885 39.0453 36.5834 38.7256C36.3983 39.2259 35.9673 40.1791 35.0204 41.0182C34.6435 41.352 33.8757 42.015 32.6762 42.2526C31.1169 42.5612 29.8626 41.9447 29.4554 41.722C29.6345 41.9558 30.5334 43.0755 32.1446 43.299C33.8031 43.5291 34.9937 42.6389 35.2973 42.4036C35.6586 42.1238 36.3946 41.5548 36.6582 40.5143H36.6589ZM31.7499 40.9701C32.1527 40.945 32.6525 40.9095 33.273 40.6985C33.6447 40.572 35.1795 40.0495 35.9274 38.5495C36.1658 38.0715 36.2524 37.6386 36.2887 37.381C35.1536 38.1233 34.1422 38.6346 33.3818 38.978C32.5422 39.3569 31.7433 39.7121 30.6245 39.9733C29.4983 40.236 28.5328 40.2893 27.8612 40.2886C29.5642 40.9901 30.9562 41.0212 31.7492 40.9709L31.7499 40.9701ZM40.6453 44.6088C40.5261 43.857 40.4802 43.2331 40.4602 42.8194C40.4239 43.3486 40.3921 43.8836 40.3654 44.4253C40.261 46.5758 40.2492 48.6442 40.3084 50.6222C40.692 50.6452 41.154 50.64 41.6693 50.5653C41.9684 50.5216 42.2402 50.4617 42.4823 50.3951C42.1106 49.5492 41.8381 48.8277 41.6508 48.2978C41.2776 47.244 40.8837 46.1111 40.6446 44.6073L40.6453 44.6088ZM39.5073 42.8194C39.4873 43.2324 39.4414 43.857 39.3222 44.6088C39.083 46.1118 38.6899 47.2448 38.316 48.2993C38.1279 48.8292 37.8562 49.5507 37.4845 50.3965C37.7266 50.4631 37.9983 50.5231 38.2974 50.5667C38.8135 50.6415 39.2748 50.6467 39.6583 50.6237C39.7183 48.6456 39.7065 46.5773 39.6013 44.4268C39.5747 43.8851 39.5436 43.35 39.5066 42.8209L39.5073 42.8194Z" fill="#F2F2F2"/>
<path d="M27.6482 74.6831V65.9558H32.9153V66.8933H28.7051V69.8422H32.6426V70.7797H28.7051V73.7456H32.9835V74.6831H27.6482Z" fill="#F2F2F2"/>
<path d="M30.0942 65.9558L32.6851 73.3024H32.7874L35.3783 65.9558H36.4863L33.2817 74.6831H32.1908L28.9863 65.9558H30.0942Z" fill="#F2F2F2"/>
<path d="M31.9605 74.6831V65.9558H37.2276V66.8933H33.0173V69.8422H36.9548V70.7797H33.0173V73.7456H37.2957V74.6831H31.9605Z" fill="#F2F2F2"/>
<path d="M47.7062 74.6831V65.9558H50.6551C51.3398 65.9558 51.8994 66.0794 52.3341 66.3266C52.7716 66.5709 53.0954 66.9019 53.3057 67.3195C53.5159 67.7371 53.621 68.203 53.621 68.7172C53.621 69.2314 53.5159 69.6987 53.3057 70.1192C53.0983 70.5396 52.7773 70.8749 52.3426 71.1249C51.9079 71.372 51.3511 71.4956 50.6721 71.4956H48.5585V70.5581H50.6381C51.1068 70.5581 51.4832 70.4771 51.7673 70.3152C52.0514 70.1533 52.2574 69.9345 52.3852 69.659C52.5159 69.3805 52.5812 69.0666 52.5812 68.7172C52.5812 68.3678 52.5159 68.0553 52.3852 67.7797C52.2574 67.5041 52.05 67.2882 51.7631 67.132C51.4761 66.9729 51.0954 66.8933 50.621 66.8933H48.7631V74.6831H47.7062Z" fill="#F2F2F2"/>
<path d="M40.8652 65.9558V74.6831H39.8425L35.0868 67.8308H35.0016V74.6831H33.9448V65.9558H34.9675L39.7402 72.8252H39.8254V65.9558H40.8652Z" fill="#F2F2F2"/>
<path d="M35.7917 66.8933V65.9558H42.3372V66.8933H39.5928V74.6831H38.536V66.8933H35.7917Z" fill="#F2F2F2"/>
<path d="M47.7135 68.6831H46.6566C46.5941 68.3791 46.4848 68.1121 46.3285 67.882C46.1751 67.6519 45.9876 67.4587 45.766 67.3024C45.5473 67.1433 45.3044 67.024 45.0373 66.9445C44.7703 66.8649 44.4919 66.8252 44.2021 66.8252C43.6737 66.8252 43.195 66.9587 42.766 67.2257C42.3399 67.4928 42.0004 67.8862 41.7475 68.4061C41.4975 68.926 41.3725 69.5638 41.3725 70.3195C41.3725 71.0752 41.4975 71.7129 41.7475 72.2328C42.0004 72.7527 42.3399 73.1462 42.766 73.4132C43.195 73.6803 43.6737 73.8138 44.2021 73.8138C44.4919 73.8138 44.7703 73.774 45.0373 73.6945C45.3044 73.6149 45.5473 73.497 45.766 73.3408C45.9876 73.1817 46.1751 72.9871 46.3285 72.757C46.4848 72.524 46.5941 72.257 46.6566 71.9558H47.7135C47.6339 72.4019 47.489 72.801 47.2788 73.1533C47.0686 73.5055 46.8072 73.8053 46.4947 74.0524C46.1822 74.2967 45.8314 74.4828 45.4421 74.6107C45.0558 74.7385 44.6424 74.8024 44.2021 74.8024C43.4578 74.8024 42.7958 74.6206 42.2163 74.257C41.6368 73.8933 41.1808 73.3763 40.8484 72.7058C40.516 72.0354 40.3498 71.2399 40.3498 70.3195C40.3498 69.399 40.516 68.6036 40.8484 67.9331C41.1808 67.2627 41.6368 66.7456 42.2163 66.382C42.7958 66.0183 43.4578 65.8365 44.2021 65.8365C44.6424 65.8365 45.0558 65.9004 45.4421 66.0283C45.8314 66.1561 46.1822 66.3436 46.4947 66.5908C46.8072 66.8351 47.0686 67.1334 47.2788 67.4857C47.489 67.8351 47.6339 68.2342 47.7135 68.6831Z" fill="#F2F2F2"/>
<path d="M50.2631 70.3195C50.2631 71.2399 50.0969 72.0354 49.7645 72.7058C49.4321 73.3763 48.9762 73.8933 48.3966 74.257C47.8171 74.6206 47.1552 74.8024 46.4108 74.8024C45.6665 74.8024 45.0046 74.6206 44.425 74.257C43.8455 73.8933 43.3895 73.3763 43.0571 72.7058C42.7248 72.0354 42.5586 71.2399 42.5586 70.3195C42.5586 69.399 42.7248 68.6036 43.0571 67.9331C43.3895 67.2627 43.8455 66.7456 44.425 66.382C45.0046 66.0183 45.6665 65.8365 46.4108 65.8365C47.1552 65.8365 47.8171 66.0183 48.3966 66.382C48.9762 66.7456 49.4321 67.2627 49.7645 67.9331C50.0969 68.6036 50.2631 69.399 50.2631 70.3195ZM49.2404 70.3195C49.2404 69.5638 49.114 68.926 48.8611 68.4061C48.6111 67.8862 48.2716 67.4928 47.8427 67.2257C47.4165 66.9587 46.9392 66.8252 46.4108 66.8252C45.8824 66.8252 45.4037 66.9587 44.9748 67.2257C44.5486 67.4928 44.2091 67.8862 43.9563 68.4061C43.7063 68.926 43.5813 69.5638 43.5813 70.3195C43.5813 71.0752 43.7063 71.7129 43.9563 72.2328C44.2091 72.7527 44.5486 73.1462 44.9748 73.4132C45.4037 73.6803 45.8824 73.8138 46.4108 73.8138C46.9392 73.8138 47.4165 73.6803 47.8427 73.4132C48.2716 73.1462 48.6111 72.7527 48.8611 72.2328C49.114 71.7129 49.2404 71.0752 49.2404 70.3195Z" fill="#F2F2F2"/>
<path d="M45.1021 65.9558H46.3635L49.3294 73.2002H49.4317L52.3976 65.9558H53.6589V74.6831H52.6703V68.0524H52.5851L49.8578 74.6831H48.9032L46.176 68.0524H46.0907V74.6831H45.1021V65.9558Z" fill="#F2F2F2"/>
<path d="M50.3032 74.6831H49.1952L52.3998 65.9558H53.4907L56.6952 74.6831H55.5873L52.9793 67.3365H52.9112L50.3032 74.6831ZM50.7123 71.274H55.1782V72.2115H50.7123V71.274Z" fill="#F2F2F2"/>
<path d="M58.9922 65.9558V74.6831H57.9694L53.2138 67.8308H53.1285V74.6831H52.0717V65.9558H53.0944L57.8672 72.8252H57.9524V65.9558H58.9922Z" fill="#F2F2F2"/>
<path d="M53.5467 65.9558H54.7569L57.1774 70.0297H57.2796L59.7001 65.9558H60.9103L57.7569 71.0865V74.6831H56.7001V71.0865L53.5467 65.9558Z" fill="#F2F2F2"/>
<path d="M51.2533 58.9809L49.7303 55.0973H49.4274L48.6382 55.3666V55.528C48.7655 55.5413 48.8618 55.5657 48.9277 55.602C48.9936 55.6382 49.0558 55.7078 49.115 55.8107L47.977 58.7241C47.7689 59.2592 47.4942 59.5515 47.1544 59.6018V59.7823H48.6774V59.6018C48.5108 59.5951 48.3805 59.5359 48.2879 59.4242C48.1946 59.3124 48.148 59.1829 48.148 59.0364C48.148 58.8899 48.1761 58.7352 48.2339 58.5924L48.4508 58.0337H50.0072L50.3759 58.9742C50.4396 59.1171 50.4714 59.2318 50.4714 59.3198C50.4714 59.4205 50.4292 59.4886 50.3448 59.5241C50.2604 59.5596 50.1338 59.5855 49.965 59.6033V59.7838H51.919V59.6033C51.739 59.564 51.605 59.5048 51.5177 59.4271C51.4295 59.3494 51.3422 59.2007 51.2548 58.9816L51.2533 58.9809ZM47.5061 59.6025C47.6134 59.5233 47.6971 59.4456 47.7578 59.3687C47.8178 59.2917 47.8777 59.1992 47.937 59.0889C47.9325 59.1156 47.9303 59.1511 47.9303 59.1977C47.9303 59.3598 47.9992 59.4945 48.1376 59.6025H47.5061ZM48.5293 57.8235L49.2238 56.0512L49.9243 57.8235H48.5293ZM50.7091 59.5204C50.6528 59.5751 50.5736 59.6025 50.4707 59.6025H50.3981C50.4707 59.5478 50.5188 59.5063 50.5433 59.4775C50.5677 59.4493 50.5795 59.4027 50.5795 59.3391C50.5795 59.2407 50.5433 59.1038 50.4707 58.9284L49.306 55.9527C49.2579 55.8277 49.2068 55.7278 49.1527 55.6538C49.0987 55.579 49.0195 55.5213 48.9143 55.4791C48.9536 55.4702 49.0054 55.4658 49.0691 55.4658C49.1764 55.4658 49.2608 55.4969 49.3223 55.5598C49.3838 55.6219 49.443 55.7278 49.5 55.8773L50.6743 58.8529C50.7535 59.0608 50.7928 59.2192 50.7928 59.3265C50.7928 59.4012 50.7646 59.4656 50.7091 59.5204ZM21.0257 55.3245C21.2278 55.3422 21.3774 55.3985 21.4766 55.4939C21.5751 55.5894 21.6247 55.7359 21.6247 55.9328C21.6247 56.0245 21.6099 56.1266 21.5803 56.2384C21.5506 56.3501 21.5136 56.4656 21.4699 56.584L20.7695 58.5998L19.9143 56.1599C19.8114 55.875 19.7596 55.6797 19.7596 55.5746C19.7596 55.4695 19.8047 55.4081 19.8958 55.377C19.9869 55.3467 20.1113 55.3289 20.269 55.3245V55.1439H18.275V55.3245C18.3979 55.3311 18.4786 55.337 18.5171 55.3422C18.5556 55.3474 18.6023 55.3689 18.6571 55.4066C18.7119 55.4436 18.7659 55.508 18.8185 55.599C18.8711 55.69 18.9236 55.8232 18.9762 55.9986L18.0684 58.5998L17.1836 56.0512C17.1133 55.8366 17.0785 55.6819 17.0785 55.5872C17.0785 55.4073 17.2266 55.3178 17.5228 55.3178C17.5428 55.3178 17.5576 55.3178 17.5672 55.3193C17.5768 55.32 17.5887 55.3222 17.602 55.3245V55.1439H15.6643V55.3245C15.805 55.3245 15.9101 55.3489 15.9819 55.397C16.053 55.4451 16.1115 55.5198 16.1567 55.6205C16.2019 55.7211 16.2803 55.9328 16.3921 56.2554L17.6457 59.8726H17.8197L19.0799 56.2554L20.3467 59.8726H20.534L21.735 56.4234C21.8468 56.1059 21.9638 55.861 22.0852 55.69C22.2067 55.5191 22.3481 55.3977 22.508 55.3252V55.1446H21.0272V55.3252L21.0257 55.3245ZM17.7671 59.5056C17.7553 59.5441 17.7427 59.5759 17.7308 59.601C17.719 59.6262 17.7049 59.6551 17.6894 59.6884L16.4099 55.9994C16.3418 55.8018 16.2826 55.6538 16.2322 55.5539C16.1819 55.454 16.1167 55.3777 16.0382 55.3252C16.1522 55.3163 16.2404 55.3282 16.3033 55.3615C16.3655 55.3948 16.4188 55.4532 16.461 55.5391C16.5039 55.6242 16.5632 55.7781 16.6402 55.9994L17.7293 59.143C17.7664 59.237 17.7856 59.325 17.7856 59.4057C17.7856 59.4338 17.7797 59.4678 17.7678 59.5056H17.7671ZM20.3911 59.6684L19.085 55.9461C18.9755 55.6367 18.8555 55.4295 18.7267 55.3245C18.8496 55.3267 18.9414 55.3444 19.0029 55.3785C19.0643 55.4125 19.111 55.4591 19.1428 55.5183C19.1746 55.5775 19.2198 55.6885 19.279 55.8506L20.4208 59.0897C20.4644 59.2148 20.4867 59.3021 20.4867 59.3524C20.4867 59.4316 20.4548 59.5367 20.3911 59.6684ZM22.0823 55.3245C22.0008 55.3881 21.932 55.4636 21.8749 55.5516C21.8179 55.639 21.7661 55.7389 21.7202 55.8506C21.7135 55.73 21.6898 55.6286 21.6491 55.5465C21.6084 55.4643 21.5358 55.3903 21.43 55.3245H22.0815H22.0823ZM63.0697 56.9873C62.9334 57.1486 62.8076 57.2781 62.6928 57.3751C62.578 57.472 62.4559 57.5453 62.3263 57.5948C62.1967 57.6444 62.0501 57.6696 61.8872 57.6696C61.7525 57.6696 61.6458 57.6659 61.5681 57.6585C61.4904 57.6511 61.4304 57.6333 61.3889 57.6037C61.3475 57.5749 61.3186 57.5305 61.3038 57.4705C61.2882 57.4106 61.2801 57.3262 61.2801 57.2182V56.2413H61.7999C61.9716 56.2413 62.0997 56.2828 62.1834 56.3649C62.2671 56.4471 62.3181 56.5788 62.3359 56.7594H62.4736V55.5827H62.3181C62.3137 55.9394 62.1168 56.1178 61.7273 56.1178H61.2808V55.1498C61.2808 55.0655 61.2919 54.9974 61.3141 54.9456C61.3364 54.8938 61.3815 54.8531 61.4496 54.8242C61.5178 54.7953 61.6192 54.7805 61.754 54.7805C61.9242 54.7805 62.0864 54.8072 62.2397 54.8605C62.3929 54.9137 62.5314 54.9848 62.655 55.0728C62.7787 55.1609 62.8838 55.2593 62.9697 55.3674H63.1297L62.8609 54.6592H60.2346V54.7813C60.3812 54.7887 60.4864 54.8013 60.55 54.8183C60.6137 54.8353 60.6589 54.8679 60.6855 54.9152C60.7122 54.9626 60.7255 55.0381 60.7255 55.1417V57.3381C60.7255 57.4239 60.7107 57.4905 60.6818 57.5371C60.6529 57.5837 60.6041 57.617 60.5352 57.637C60.4664 57.657 60.3657 57.6688 60.2339 57.6718V57.7939H62.969L63.2466 56.9902H63.0689L63.0697 56.9873ZM62.2922 55.9505V56.3856C62.2582 56.325 62.2175 56.2791 62.1701 56.248C62.1227 56.2169 62.0583 56.1903 61.9768 56.1681C62.1293 56.1222 62.2345 56.0497 62.2922 55.9505ZM62.6521 54.7805L62.8187 55.1002C62.7224 55.0277 62.6314 54.9655 62.5455 54.9137C62.4596 54.8619 62.3611 54.8175 62.25 54.7805H62.6521ZM60.941 57.2678C60.941 57.4084 60.9225 57.5105 60.8862 57.5734C60.8499 57.6363 60.7699 57.6688 60.647 57.6703C60.6974 57.6363 60.7351 57.5941 60.7603 57.5438C60.7855 57.4935 60.7981 57.4143 60.7981 57.3062V55.1587C60.7981 55.0507 60.7862 54.9715 60.7633 54.9219C60.7403 54.8723 60.7011 54.8323 60.6463 54.8027C60.7559 54.8057 60.8321 54.8279 60.8751 54.8686C60.918 54.9093 60.9395 54.9929 60.9395 55.1187V57.2685L60.941 57.2678ZM62.7476 57.6696H62.3611C62.4914 57.6 62.5921 57.5416 62.6632 57.4949C62.7343 57.4483 62.8135 57.3773 62.9009 57.2826L62.7476 57.6688V57.6696ZM25.9576 55.3252C26.1612 55.3407 26.3086 55.3615 26.3982 55.3874C26.4878 55.414 26.5514 55.4636 26.5892 55.5368C26.6262 55.6101 26.6455 55.7278 26.6455 55.8906V57.2715H24.3065V56.0682C24.3065 55.8558 24.3183 55.7011 24.3428 55.6049C24.3672 55.5087 24.4264 55.4384 24.5205 55.3948C24.6145 55.3511 24.7707 55.3282 24.9877 55.3259V55.1454H22.7901V55.3259C23.0574 55.337 23.2403 55.3748 23.338 55.4392C23.4358 55.5035 23.4846 55.6412 23.4846 55.8521V58.9365C23.4846 59.0852 23.475 59.2014 23.4565 59.2851C23.438 59.3687 23.4039 59.4331 23.3543 59.4789C23.3047 59.5248 23.2381 59.5559 23.1537 59.5729C23.0692 59.5892 22.9478 59.5996 22.7901 59.604V59.7846H24.9877V59.604C24.8122 59.5885 24.6819 59.57 24.5975 59.5478C24.5131 59.5256 24.4494 59.49 24.4064 59.4412C24.3635 59.3916 24.3361 59.3265 24.3243 59.2436C24.3124 59.1615 24.3065 59.0394 24.3065 58.8773V57.5157H26.6455V58.9491C26.6455 59.1422 26.6307 59.2799 26.601 59.3635C26.5714 59.4471 26.5115 59.5048 26.4219 59.5381C26.3323 59.5707 26.1775 59.5929 25.9576 59.604V59.7846H28.1552V59.604C27.9427 59.6084 27.7887 59.5892 27.6932 59.5463C27.5977 59.5034 27.5362 59.436 27.5088 59.3443C27.4814 59.2525 27.4673 59.1163 27.4673 58.9365V56.0689C27.4673 55.8432 27.4814 55.6819 27.5103 55.5857C27.5384 55.4895 27.5984 55.4236 27.6895 55.3881C27.7805 55.3533 27.9353 55.3326 28.1552 55.3259V55.1454H25.9576V55.3259V55.3252ZM23.803 59.0016C23.803 59.2037 23.7771 59.3539 23.726 59.4538C23.6742 59.5537 23.5853 59.6033 23.458 59.6033H23.3625C23.4283 59.5596 23.4831 59.4982 23.5268 59.4205C23.5705 59.3428 23.5927 59.2081 23.5927 59.0179V55.878C23.5927 55.7048 23.575 55.5805 23.5402 55.505C23.5054 55.4295 23.4461 55.3696 23.3625 55.3259C23.5031 55.3171 23.6038 55.3356 23.6653 55.3822C23.7267 55.4281 23.7652 55.4991 23.7808 55.5946C23.7963 55.69 23.8037 55.8432 23.8037 56.0534V59.0031L23.803 59.0016ZM26.6129 55.3252C26.7662 55.3252 26.8632 55.3733 26.9024 55.4702C26.9416 55.5664 26.9616 55.7159 26.9616 55.9172V59.1792C26.9616 59.3265 26.935 59.4338 26.8824 59.5011C26.8298 59.5692 26.7439 59.6033 26.6255 59.6033H26.5166C26.6003 59.5529 26.6603 59.4952 26.6973 59.4308C26.7343 59.3665 26.7536 59.2525 26.7536 59.0904V55.8321C26.7536 55.6856 26.7373 55.5746 26.704 55.4998C26.6706 55.4251 26.6085 55.3674 26.5166 55.3252H26.6122H26.6129ZM31.4493 55.1446L31.219 56.2295H31.4197C31.5707 56.0452 31.6855 55.9098 31.7633 55.8232C31.841 55.7366 31.9395 55.6552 32.0579 55.5783C32.1764 55.5013 32.323 55.4406 32.4985 55.3955C32.674 55.3504 32.8798 55.3274 33.1167 55.3245V59.0238C33.1167 59.1948 33.0908 59.3206 33.0397 59.4005C32.9879 59.4804 32.9116 59.533 32.8095 59.5581C32.7073 59.5833 32.5614 59.5981 32.3704 59.6025V59.7831H34.6768V59.6025C34.488 59.5959 34.3414 59.5781 34.2363 59.55C34.1311 59.5219 34.0556 59.4693 34.0089 59.3938C33.963 59.3184 33.9401 59.2081 33.9401 59.0638V55.3252C34.2029 55.3296 34.4169 55.3452 34.5798 55.3711C34.7434 55.3977 34.9167 55.4762 35.1011 55.6079C35.2854 55.7396 35.4616 55.9468 35.6305 56.2295H35.8674L35.6305 55.1446H31.4486H31.4493ZM31.6929 55.5576C31.6092 55.6286 31.5123 55.7381 31.3997 55.8847L31.5278 55.3259H32.0609C31.8988 55.4096 31.7758 55.4865 31.6922 55.5576H31.6929ZM33.4366 58.9491C33.4366 59.1837 33.4144 59.3517 33.3707 59.4523C33.327 59.5529 33.2248 59.6033 33.0649 59.6033H32.9923C33.0819 59.5418 33.1434 59.4708 33.1767 59.3894C33.2093 59.308 33.2263 59.2 33.2263 59.0638V55.3252C33.3078 55.3319 33.3626 55.3666 33.3922 55.4303C33.4218 55.4939 33.4366 55.5894 33.4366 55.7167V58.9491ZM35.1477 55.5294C35.0359 55.4466 34.8967 55.3785 34.7301 55.3259H35.3484L35.4964 55.8521C35.3758 55.7204 35.2595 55.6131 35.1477 55.5302V55.5294ZM46.1807 59.1681C46.0104 59.3117 45.8297 59.4205 45.638 59.4937C45.4462 59.567 45.2293 59.604 44.9879 59.604C44.788 59.604 44.631 59.5988 44.5155 59.5877C44.4007 59.5766 44.3119 59.55 44.2504 59.5071C44.189 59.4641 44.1468 59.3983 44.1238 59.3095C44.1009 59.2207 44.089 59.0963 44.089 58.9365V57.4898H44.8591C45.1138 57.4898 45.3026 57.5504 45.427 57.6725C45.5506 57.7939 45.6261 57.9885 45.652 58.2564H45.8557V56.5137H45.6254C45.6187 57.042 45.327 57.3062 44.7502 57.3062H44.089V55.8728C44.089 55.7477 44.1053 55.6471 44.1386 55.5701C44.1712 55.4932 44.2386 55.434 44.3393 55.3911C44.44 55.3481 44.5903 55.3267 44.7902 55.3267C45.0427 55.3267 45.2818 55.3659 45.5091 55.4451C45.7365 55.5243 45.9415 55.6286 46.1244 55.7589C46.3073 55.8891 46.4628 56.0349 46.5902 56.1947H46.8271L46.4287 55.1461H42.5401V55.3267C42.757 55.3378 42.9132 55.3555 43.0073 55.3807C43.1013 55.4059 43.1687 55.454 43.2079 55.5235C43.2472 55.5938 43.2672 55.7056 43.2672 55.8588V59.1104C43.2672 59.2377 43.2457 59.3354 43.2027 59.4049C43.1598 59.4738 43.0872 59.5233 42.9858 59.5529C42.8836 59.5825 42.7355 59.5996 42.5401 59.604V59.7846H46.5902L47.0011 58.5946H46.7382C46.5361 58.8336 46.3503 59.0246 46.1807 59.1681ZM45.5869 57.0591V57.7036C45.5365 57.6141 45.4758 57.546 45.4062 57.5001C45.3359 57.4542 45.2404 57.4143 45.1197 57.3817C45.3455 57.3136 45.501 57.2063 45.5869 57.0591ZM46.12 55.3259L46.3666 55.7996C46.2236 55.6922 46.0889 55.5997 45.9615 55.5235C45.8342 55.4466 45.6883 55.3814 45.524 55.3259H46.1193H46.12ZM43.587 59.009C43.587 59.217 43.5604 59.3679 43.5063 59.4612C43.4523 59.5544 43.3345 59.6018 43.1524 59.604C43.2272 59.5537 43.2827 59.4908 43.3205 59.4168C43.3575 59.342 43.3767 59.2251 43.3767 59.0653V55.8854C43.3767 55.7255 43.3597 55.6086 43.3256 55.5354C43.2916 55.4621 43.2338 55.4036 43.1531 55.3592C43.3153 55.3637 43.4286 55.3962 43.4922 55.4562C43.5559 55.5169 43.5878 55.6397 43.5878 55.8262V59.009H43.587ZM46.2614 59.604H45.6891C45.8823 59.5011 46.0311 59.4146 46.1363 59.3457C46.2414 59.2769 46.3591 59.1718 46.488 59.032L46.2607 59.604H46.2614ZM55.1146 57.953C55.3293 57.9708 55.4811 57.9974 55.5685 58.0337C55.6559 58.0699 55.7114 58.1321 55.7343 58.2209C55.7573 58.3097 55.7691 58.4651 55.7691 58.6864C55.7691 58.827 55.7603 58.9439 55.7425 59.0379C55.7247 59.1319 55.6862 59.2199 55.627 59.3006C55.5522 59.4057 55.4419 59.4915 55.296 59.5566C55.1502 59.6218 54.9924 59.6551 54.8236 59.6551C54.5363 59.6551 54.2705 59.5633 54.0254 59.379C53.7804 59.1948 53.5871 58.9365 53.4435 58.6028C53.2998 58.2697 53.228 57.8901 53.228 57.4646C53.228 57.0391 53.2932 56.658 53.4235 56.3272C53.5538 55.9964 53.7374 55.7374 53.9744 55.5509C54.2113 55.3644 54.4808 55.2712 54.7836 55.2712C54.9436 55.2712 55.0983 55.2963 55.2471 55.3467C55.396 55.397 55.5389 55.4747 55.6751 55.5783C55.8113 55.6826 55.9424 55.8158 56.0697 55.9779C56.1971 56.14 56.3111 56.3242 56.4118 56.53H56.5895L56.534 55.0803H56.2941C56.2149 55.1898 56.0735 55.2445 55.8698 55.2445C55.7951 55.2445 55.6107 55.2127 55.3153 55.1491C55.0206 55.0854 54.7599 55.0536 54.5341 55.0536C54.1987 55.0536 53.8907 55.1202 53.6093 55.2527C53.3287 55.3851 53.0881 55.5664 52.8889 55.7951C52.689 56.0245 52.5365 56.2865 52.4298 56.5825C52.3232 56.8785 52.2699 57.1819 52.2699 57.4935C52.2699 57.805 52.324 58.1151 52.4313 58.4044C52.5387 58.6938 52.6979 58.9491 52.9082 59.1704C53.1184 59.3916 53.3783 59.564 53.6878 59.6869C53.9973 59.8097 54.3438 59.8712 54.7274 59.8712C54.9354 59.8712 55.1472 59.8512 55.3604 59.812C55.5744 59.7727 55.7862 59.7172 55.9957 59.6462C56.2052 59.5751 56.4007 59.4923 56.5829 59.3975V58.6642C56.5829 58.4518 56.5969 58.3008 56.6258 58.212C56.6539 58.1232 56.711 58.0618 56.7954 58.0278C56.8798 57.9937 57.0308 57.9678 57.2478 57.9508V57.7636H55.1124V57.9508L55.1146 57.953ZM55.667 55.3933C55.7151 55.4051 55.7588 55.414 55.7988 55.4199C55.8387 55.4258 55.8817 55.4281 55.9305 55.4281C55.9942 55.4281 56.0757 55.4081 56.1741 55.3689L56.2201 55.9675C56.0076 55.7048 55.7891 55.505 55.5655 55.3689C55.5855 55.3733 55.6196 55.3814 55.6677 55.3933H55.667ZM53.7937 59.6255C53.67 59.5825 53.5434 59.5233 53.4139 59.4479C53.2843 59.3724 53.1569 59.2732 53.0326 59.1504C52.8282 58.9446 52.669 58.6916 52.5535 58.3926C52.4387 58.0936 52.381 57.7902 52.381 57.4831C52.381 57.2396 52.4158 57.0036 52.4861 56.7742C52.5565 56.5448 52.6586 56.3279 52.7919 56.1229C52.9259 55.918 53.0762 55.744 53.2443 55.5997C53.4124 55.4562 53.5916 55.3474 53.7826 55.2727C53.8744 55.2357 53.9995 55.2016 54.1572 55.1705C54.0062 55.2386 53.8752 55.3037 53.7641 55.3659C53.653 55.4281 53.5353 55.5176 53.4102 55.6338C53.1577 55.8728 52.9592 56.1577 52.8134 56.4885C52.6675 56.8193 52.5942 57.1486 52.5942 57.475C52.5942 57.7554 52.6512 58.0381 52.7653 58.3215C52.8793 58.6057 53.0407 58.8588 53.2488 59.083C53.4065 59.2495 53.5612 59.3798 53.713 59.473C53.864 59.5663 54.0484 59.661 54.2653 59.7572C54.0743 59.7113 53.9173 59.6669 53.793 59.624L53.7937 59.6255ZM55.9483 58.0574C56.015 58.1114 56.0572 58.1854 56.0735 58.2808C56.0897 58.3763 56.0979 58.5325 56.0979 58.7493C56.0979 58.9247 56.0779 59.0667 56.0372 59.177C55.9964 59.2865 55.9283 59.3761 55.8336 59.4449C55.738 59.5137 55.604 59.567 55.4308 59.6047C55.5885 59.5189 55.7025 59.4116 55.7728 59.2806C55.8432 59.1504 55.878 59.0179 55.878 58.8847V58.4503C55.878 58.3164 55.8565 58.215 55.8136 58.1462C55.7706 58.0773 55.7084 58.013 55.6277 57.9538C55.7743 57.9693 55.8817 58.0033 55.9483 58.0574ZM63.2326 58.4932C63.1452 58.5058 62.795 58.5591 62.4226 58.716C62.022 58.8854 62.0494 58.9839 61.7162 59.1385C61.3985 59.2865 61.0987 59.3043 60.4997 59.3406C59.8266 59.3813 59.5816 59.2999 59.4409 59.2399C59.2809 59.1711 59.1603 59.0882 59.0818 59.0268V55.8077C59.0818 55.6567 59.1003 55.5398 59.1373 55.4577C59.1743 55.3755 59.2387 55.3193 59.3298 55.2882C59.4209 55.2579 59.5519 55.2423 59.723 55.2423H59.8252V55.0618H57.5387V55.2423C57.7535 55.2423 57.9134 55.2623 58.0171 55.3015C58.1215 55.3407 58.1881 55.4022 58.2177 55.4858C58.2473 55.5694 58.2621 55.693 58.2621 55.8573V58.9683C58.2621 59.1089 58.2451 59.2177 58.211 59.2954C58.177 59.3731 58.1126 59.4301 58.0185 59.4664C57.9245 59.5026 57.7786 59.5204 57.5809 59.5204H57.538V59.7009C59.4994 59.6943 61.4607 59.6876 63.4221 59.681C63.7161 59.2902 64.01 58.9002 64.304 58.5095C64.01 58.4969 63.7161 58.4843 63.4221 58.4718C63.3762 58.4755 63.3103 58.4821 63.2311 58.4932H63.2326ZM58.579 59.0534C58.579 59.3739 58.468 59.5337 58.2466 59.5337C58.2377 59.5337 58.2192 59.5315 58.1903 59.527C58.1622 59.5226 58.1429 59.5204 58.1348 59.5204C58.214 59.4767 58.2725 59.4249 58.311 59.3657C58.3495 59.3065 58.3688 59.2236 58.3688 59.1156V55.7485C58.3688 55.5864 58.3525 55.4747 58.3191 55.4133C58.2866 55.3518 58.2251 55.2949 58.1348 55.2423H58.2333C58.3954 55.2423 58.4939 55.2963 58.5279 55.4036C58.562 55.5109 58.579 55.6752 58.579 55.8965V59.0534ZM63.3103 59.4923C62.9194 59.513 62.5292 59.5344 62.1382 59.5552C62.2189 59.4146 62.4263 59.0949 62.8313 58.8751C63.294 58.6235 63.7331 58.6546 63.8901 58.6738C63.6968 58.9469 63.5036 59.2199 63.3103 59.4923ZM39.7916 59.1689C39.6213 59.3124 39.4407 59.4212 39.2489 59.4945C39.0571 59.5677 38.8402 59.6047 38.5988 59.6047C38.3989 59.6047 38.2419 59.5996 38.1264 59.5885C38.0117 59.5774 37.9228 59.5507 37.8613 59.5078C37.7999 59.4649 37.7577 59.399 37.7347 59.3102C37.7118 59.2214 37.6999 59.0971 37.6999 58.9372V57.4905H38.47C38.7247 57.4905 38.9135 57.5512 39.0379 57.6733C39.1615 57.7947 39.237 57.9893 39.263 58.2572H39.4666V56.5144H39.2363C39.2296 57.0428 38.9379 57.307 38.3611 57.307H37.6999V55.8736C37.6999 55.7485 37.7162 55.6478 37.7495 55.5709C37.7821 55.4939 37.8495 55.4347 37.9502 55.3918C38.0509 55.3489 38.2012 55.3274 38.4011 55.3274C38.6536 55.3274 38.8928 55.3666 39.1201 55.4458C39.3474 55.525 39.5525 55.6293 39.7354 55.7596C39.9182 55.8898 40.0737 56.0356 40.2011 56.1955H40.438L40.0397 55.1469H36.151V55.3274C36.3679 55.3385 36.5242 55.3563 36.6182 55.3814C36.7122 55.4066 36.7796 55.4547 36.8188 55.5243C36.8581 55.5946 36.8781 55.7063 36.8781 55.8595V59.1111C36.8781 59.2384 36.8566 59.3361 36.8137 59.4057C36.7707 59.4745 36.6981 59.5241 36.5967 59.5537C36.4945 59.5833 36.3465 59.6003 36.151 59.6047V59.7853H40.2011L40.612 58.5954H40.3492C40.147 58.8344 39.9612 59.0253 39.7916 59.1689ZM39.1978 57.0598V57.7044C39.1475 57.6148 39.0867 57.5467 39.0171 57.5009C38.9468 57.455 38.8513 57.415 38.7306 57.3825C38.9564 57.3144 39.1119 57.2071 39.1978 57.0598ZM39.7309 55.3267L39.9775 55.8003C39.8346 55.693 39.6998 55.6005 39.5725 55.5243C39.4451 55.4473 39.2992 55.3822 39.1349 55.3267H39.7302H39.7309ZM37.1979 59.0098C37.1979 59.2177 37.1713 59.3687 37.1172 59.4619C37.0632 59.5552 36.9454 59.6025 36.7633 59.6047C36.8381 59.5544 36.8936 59.4915 36.9314 59.4175C36.9684 59.3428 36.9877 59.2259 36.9877 59.066V55.8861C36.9877 55.7263 36.9706 55.6094 36.9366 55.5361C36.9025 55.4628 36.8448 55.4044 36.764 55.36C36.9262 55.3644 37.0395 55.397 37.1032 55.4569C37.1668 55.5176 37.1987 55.6404 37.1987 55.8269V59.0098H37.1979ZM39.8723 59.6047H39.3C39.4932 59.5019 39.6421 59.4153 39.7472 59.3465C39.8523 59.2777 39.9701 59.1726 40.0989 59.0327L39.8716 59.6047H39.8723ZM28.6276 55.3267C28.8008 55.3422 28.9267 55.357 29.0044 55.3711C29.0822 55.3851 29.1444 55.411 29.1903 55.448C29.2362 55.485 29.2673 55.5465 29.2843 55.6308C29.3006 55.7152 29.3088 55.8454 29.3088 56.0201V58.9565C29.3088 59.1407 29.294 59.2747 29.2643 59.3591C29.2347 59.4434 29.1703 59.5048 29.0703 59.5433C28.9704 59.5818 28.823 59.6018 28.6276 59.604V59.7846H30.8185V59.604C30.6519 59.5907 30.5356 59.5781 30.4697 59.5663C30.4038 59.5544 30.3461 59.5315 30.2957 59.4989C30.2454 59.4656 30.2061 59.4116 30.1788 59.3346C30.1514 59.2577 30.1373 59.1548 30.1373 59.0253V55.9934C30.1373 56.0001 30.1395 55.9764 30.144 55.9224C30.1484 55.8684 30.1528 55.7959 30.1573 55.7033C30.1662 55.5546 30.2269 55.4554 30.3402 55.4059C30.4527 55.3563 30.6126 55.3296 30.8185 55.3252V55.1446H28.6276V55.3252V55.3267ZM29.539 55.4288C29.6005 55.5035 29.6308 55.6153 29.6308 55.764V59.2525C29.6308 59.3975 29.5872 59.4908 29.499 59.5337C29.4109 59.5766 29.2962 59.6003 29.1533 59.6047C29.2495 59.5522 29.3176 59.4997 29.3569 59.4471C29.3961 59.3946 29.4161 59.3124 29.4161 59.2007V55.9254C29.4183 55.9076 29.4198 55.8913 29.4213 55.8758C29.422 55.8602 29.4228 55.844 29.4228 55.8262C29.4228 55.5805 29.3391 55.414 29.1725 55.3267C29.3547 55.32 29.4761 55.3541 29.5376 55.4288H29.539Z" fill="#F7F7F7"/>
</svg>
