<svg width="48" height="48" viewBox="0 0 48 48" fill="none" xmlns="http://www.w3.org/2000/svg">
<rect width="48" height="48" rx="4" fill="#041461"/>
<path fill-rule="evenodd" clip-rule="evenodd" d="M19.2 12C17.2904 12 15.4591 12.7586 14.1088 14.1088C12.7586 15.4591 12 17.2904 12 19.2V28.8C12 30.7096 12.7586 32.5409 14.1088 33.8912C15.4591 35.2414 17.2904 36 19.2 36H28.8C30.7096 36 32.5409 35.2414 33.8912 33.8912C35.2414 32.5409 36 30.7096 36 28.8V19.2C36 17.2904 35.2414 15.4591 33.8912 14.1088C32.5409 12.7586 30.7096 12 28.8 12H19.2ZM18.4 24C18.4 22.5148 18.99 21.0904 20.0402 20.0402C21.0904 18.99 22.5148 18.4 24 18.4C25.4852 18.4 26.9096 18.99 27.9598 20.0402C29.01 21.0904 29.6 22.5148 29.6 24C29.6 25.4852 29.01 26.9096 27.9598 27.9598C26.9096 29.01 25.4852 29.6 24 29.6C22.5148 29.6 21.0904 29.01 20.0402 27.9598C18.99 26.9096 18.4 25.4852 18.4 24ZM29.6 18.4H31.2V16.8H29.6V18.4Z" fill="white"/>
</svg>
