<svg width="116" height="21" viewBox="0 0 116 21" fill="none" xmlns="http://www.w3.org/2000/svg">
<path d="M115.5 10.5C115.5 11.7862 115.151 13.0666 114.462 14.2699C113.773 15.4745 112.756 16.5808 111.46 17.5196C110.163 18.4585 108.616 19.2086 106.905 19.7218C105.194 20.235 103.357 20.5 101.5 20.5C99.6427 20.5 97.8057 20.235 96.0947 19.7218C94.3836 19.2086 92.8368 18.4585 91.5402 17.5197C90.2436 16.5808 89.2268 15.4745 88.5378 14.2699C87.8494 13.0666 87.5 11.7862 87.5 10.5" stroke="white"/>
<path d="M86.5 10.5C86.5 11.7862 86.1506 13.0666 85.4622 14.2699C84.7732 15.4745 83.7564 16.5808 82.4598 17.5196C81.1632 18.4585 79.6164 19.2086 77.9053 19.7218C76.1943 20.235 74.3573 20.5 72.5 20.5C70.6427 20.5 68.8057 20.235 67.0947 19.7218C65.3836 19.2086 63.8368 18.4585 62.5402 17.5197C61.2436 16.5808 60.2268 15.4745 59.5378 14.2699C58.8494 13.0666 58.5 11.7862 58.5 10.5" stroke="white"/>
<path d="M57.5 10.5C57.5 11.7862 57.1506 13.0666 56.4622 14.2699C55.7732 15.4745 54.7564 16.5808 53.4598 17.5196C52.1632 18.4585 50.6164 19.2086 48.9053 19.7218C47.1943 20.235 45.3573 20.5 43.5 20.5C41.6427 20.5 39.8057 20.235 38.0947 19.7218C36.3836 19.2086 34.8368 18.4585 33.5402 17.5197C32.2436 16.5808 31.2268 15.4745 30.5378 14.2699C29.8494 13.0666 29.5 11.7862 29.5 10.5" stroke="white"/>
<path d="M28.5 10.5C28.5 11.7862 28.1506 13.0666 27.4622 14.2699C26.7732 15.4745 25.7564 16.5808 24.4598 17.5196C23.1632 18.4585 21.6164 19.2086 19.9053 19.7218C18.1943 20.235 16.3573 20.5 14.5 20.5C12.6427 20.5 10.8057 20.235 9.09474 19.7218C7.38358 19.2086 5.83678 18.4585 4.54021 17.5197C3.24364 16.5808 2.2268 15.4745 1.53776 14.2699C0.849425 13.0666 0.5 11.7862 0.5 10.5" stroke="white"/>
</svg>
