              <svg
                width="64"
                height="53"
                viewBox="0 0 64 53"
                fill="none"
                xmlns="http://www.w3.org/2000/svg"
              >
                <path
                  d="M16.4496 8.84726C18.6789 12.8209 23.5997 14.9146 24.5648 15.3102C23.0082 14.1296 21.2276 12.5021 19.6372 10.3202C18.6325 8.94174 18.0371 7.79468 17.7978 7.3143C17.0527 5.82285 16.0973 3.43689 15.7933 0.280029C15.6515 0.603221 15.4768 1.05269 15.333 1.60282C15.2403 1.95868 14.917 3.2903 15.1361 5.02988C15.1361 5.02988 15.3745 6.93018 16.4505 8.84726H16.4496ZM16.8771 26.1018C19.1238 26.0153 20.857 25.5075 21.7391 25.2903C23.2919 24.9079 25.5772 24.5971 28.6557 25.006C28.3797 24.6836 27.9194 24.2333 27.2255 23.9075C26.3068 23.4748 25.4575 23.4845 24.0369 23.5163C21.7632 23.5675 20.6264 23.5931 20.36 23.6063C18.5862 23.6982 17.074 23.8015 15.0039 23.828C14.3978 23.8359 13.5534 23.8395 12.4754 23.6364C11.6966 23.4898 11.0684 23.2867 10.636 23.1251C10.9313 23.5807 11.4805 24.2978 12.4098 24.9291C13.0429 25.3592 13.6239 25.5941 13.9539 25.7106C15.1216 26.1239 16.1591 26.1292 16.8781 26.1018H16.8771ZM20.6881 18.1659C18.3025 17.109 13.897 14.7495 10.7991 10.11C9.725 8.5011 9.02726 6.94696 8.56499 5.60121C8.41347 6.89133 8.36425 9.18634 9.61594 11.5829C12.6009 17.2988 20.112 18.1121 20.6872 18.1659H20.6881ZM15.4642 22.4946C16.8028 22.5493 18.7059 22.522 20.9834 22.1334C19.891 22.0858 18.4019 21.9657 16.6629 21.6522C14.9711 21.3475 13.3421 21.0535 11.5374 20.2393C10.3658 19.7104 8.51384 18.6887 6.72461 16.7372C6.9736 17.667 7.58738 19.3095 9.18842 20.5996C9.33029 20.7135 9.90932 21.1718 10.7981 21.5913C11.3434 21.8482 12.6096 22.3772 15.4633 22.4928L15.4642 22.4946ZM19.4065 20.9616C23.8564 22.1211 27.0325 22.9414 27.9811 23.186C26.0288 21.5833 24.2357 20.6923 22.93 20.1704C22.156 19.8614 22.2004 19.94 18.2919 18.6463C15.8232 17.8286 15.1004 17.5637 14.5503 17.3553C12.5797 16.6074 11.5943 16.233 10.5511 15.6034C9.69411 15.0868 8.45208 14.2055 7.21776 12.7556C7.51886 13.8912 8.16159 15.6043 9.68157 17.1143C11.4399 18.8609 14.1189 19.585 19.4065 20.9616ZM47.7852 8.84726C48.8603 6.93018 49.0997 5.02988 49.0997 5.02988C49.3178 3.2903 48.9954 1.95868 48.9028 1.60282C48.759 1.05269 48.5843 0.603221 48.4425 0.280029C48.1385 3.43689 47.183 5.82285 46.438 7.3143C46.1977 7.79468 45.6032 8.94174 44.5986 10.3202C43.0082 12.5021 41.2267 14.1296 39.671 15.3102C40.6351 14.9146 45.5569 12.8209 47.7862 8.84726H47.7852ZM43.5476 18.1659C44.1238 18.1121 51.6349 17.2988 54.6189 11.5829C55.8706 9.18546 55.8223 6.89133 55.6698 5.60121C55.2076 6.94696 54.5098 8.5011 53.4357 10.11C50.3378 14.7495 45.9323 17.109 43.5467 18.1659H43.5476ZM17.7003 28.4083C19.9981 28.3483 21.2546 26.719 21.3782 26.553C20.4642 26.8047 19.2695 27.0511 17.8547 27.135C16.3502 27.2241 15.0618 27.1023 14.0842 26.9433C14.255 27.1244 15.5675 28.4639 17.6993 28.4083H17.7003ZM49.6845 17.3553C49.1344 17.5637 48.4116 17.8295 45.9429 18.6463C42.0344 19.9409 42.0788 19.8614 41.3048 20.1704C39.9991 20.6923 38.207 21.5833 36.2537 23.186C37.2023 22.9414 40.3784 22.1211 44.8283 20.9616C50.1149 19.5841 52.7949 18.86 54.5532 17.1143C56.0732 15.6043 56.716 13.8912 57.0171 12.7556C55.7827 14.2055 54.5407 15.0868 53.6837 15.6034C52.6395 16.233 51.6552 16.6074 49.6845 17.3553ZM29.6362 17.1531C29.6227 17.5328 29.6092 17.8313 29.6005 18.0088C29.6005 18.0088 29.5272 19.3943 29.7897 19.6645C29.9016 19.7801 30.0338 19.8578 30.0338 19.8578C30.1689 19.925 30.3041 19.993 30.4392 20.0601C30.4285 19.6715 30.4363 19.1223 30.5222 18.4679C30.5646 18.1465 30.6061 17.8295 30.7094 17.4719C30.831 17.0533 31.0896 16.4025 31.6957 15.6864C31.4226 15.7579 30.9506 15.8453 30.3899 15.7544C29.7134 15.644 29.0726 15.3005 29.1083 15.191C29.1247 15.1415 29.2666 15.1716 29.5764 15.146C29.5764 15.146 30.1535 15.0992 30.7673 14.8413C30.8734 14.7972 30.9478 14.7592 31.5924 14.3503C32.5102 13.7684 32.6723 13.6466 32.7804 13.7031C32.8567 13.7428 32.9773 13.9106 32.6569 14.8528C32.9348 14.7389 33.3315 14.5808 33.815 14.4016C34.8389 14.0227 35.3649 13.8426 35.885 13.8152C36.2662 13.7958 36.9341 13.8276 37.7669 14.2382C37.8132 13.9574 37.8412 13.4673 37.5362 13.0487C37.0547 12.3874 36.0549 12.337 35.417 12.3043C34.5417 12.2602 34.3583 12.4421 31.9678 12.8006C31.1466 12.9234 30.5945 12.9878 30.0097 12.73C29.4818 12.4968 29.2 12.1207 29.1093 11.9891C28.6123 11.265 28.7957 10.5021 28.8381 10.3431C28.6924 10.4765 28.0168 11.122 28.0246 12.1012C28.0323 13.0011 28.6133 13.8391 29.5272 14.2885C29.3187 14.2647 28.3614 14.134 27.8026 13.387C27.6212 13.1441 27.5305 12.9022 27.4822 12.7105C26.7845 14.0015 26.9311 15.4435 27.8258 16.3239C28.455 16.9429 29.2705 17.1037 29.6372 17.1531H29.6362ZM33.0719 23.1869C32.0228 25.7115 32.6974 28.0427 32.8422 28.5081C33.8429 31.7356 36.9408 34.2434 40.0985 34.6946C40.3803 34.7344 40.6187 34.7529 40.7924 34.7609C39.1991 34.0368 38.1336 33.1626 37.5073 32.5665C36.7044 31.8027 35.0435 30.1788 34.616 27.6365C34.5166 27.0449 34.3264 25.8254 34.8128 24.3896C35.3851 22.703 36.5731 21.6601 37.5729 20.7824C38.0825 20.3356 38.8101 19.8526 40.2664 18.8883C42.2467 17.577 42.6308 17.4154 44.1103 16.4237C45.8078 15.2855 46.6571 14.7159 47.5594 13.8982C48.2446 13.2775 49.5986 12.0324 50.6148 10.201C52.019 7.67017 52.1329 5.1853 52.0277 3.61791C51.7777 4.54951 51.329 5.86436 50.4836 7.31519C49.5397 8.93379 48.5544 9.99697 47.6579 10.8924C46.8134 11.7366 45.4749 12.9808 43.6548 14.2956C43.4598 14.436 43.014 14.7318 42.1232 15.3261C39.5542 17.0401 38.8169 17.494 38.2292 17.8966C36.2855 19.2256 34.0958 20.7223 33.0709 23.1869H33.0719ZM34.947 15.8674C35.3639 15.3703 35.803 15.0303 36.1253 14.8139C35.8088 14.8104 35.2896 14.8466 34.7501 15.1009C33.7213 15.5848 32.9599 16.6966 33.124 17.8516C33.2417 18.6834 33.7966 19.2282 34.0331 19.4358C33.9202 19.0066 33.7985 18.2587 34.0601 17.4004C34.283 16.6683 34.6864 16.1782 34.947 15.8674ZM16.6146 13.8982C17.5169 14.7159 18.3662 15.2855 20.0637 16.4237C21.5432 17.4154 21.9273 17.577 23.9076 18.8883C25.3639 19.8526 26.0925 20.3347 26.6011 20.7824C27.6009 21.6601 28.7889 22.703 29.3612 24.3896C29.8476 25.8245 29.6575 27.0449 29.5581 27.6365C29.1305 30.1788 27.4697 31.8027 26.6667 32.5665C26.0404 33.1626 24.974 34.0368 23.3816 34.7609C23.5553 34.752 23.7937 34.7344 24.0755 34.6946C27.2342 34.2443 30.3311 31.7356 31.3318 28.5081C31.4766 28.0427 32.1512 25.7115 31.1022 23.1869C30.0773 20.7215 27.8875 19.2247 25.9439 17.8966C25.3552 17.494 24.6179 17.0401 22.0498 15.3261C21.1591 14.7318 20.7132 14.436 20.5183 14.2956C18.6982 12.9808 17.3596 11.7366 16.5152 10.8924C15.6187 9.99697 14.6333 8.93379 13.6895 7.31519C12.8441 5.86436 12.3953 4.54951 12.1454 3.61791C12.0402 5.1853 12.1531 7.67017 13.5582 10.201C14.5745 12.0324 15.9284 13.2775 16.6136 13.8982H16.6146ZM40.8648 28.018C39.8736 27.6083 38.5544 26.999 37.0759 26.1124C37.1232 26.4197 37.2361 26.9363 37.5469 27.5067C38.5216 29.2966 40.5222 29.9201 41.0066 30.0711C41.8163 30.3236 42.4668 30.3651 42.9918 30.3951C44.0254 30.4552 45.8397 30.4172 48.0593 29.581C47.184 29.5827 45.9265 29.5183 44.4577 29.2048C42.9995 28.8931 41.9582 28.4692 40.8638 28.0171L40.8648 28.018ZM41.7845 31.9263C40.2211 31.6429 39.2203 30.8517 38.7291 30.4534C37.4948 29.452 36.934 28.3147 36.6918 27.7178C36.5548 28.0992 36.3309 28.9054 36.5934 29.8521C36.9379 31.0936 37.8962 31.7727 38.3672 32.1065C38.7638 32.3873 40.3147 33.4496 42.4764 33.1749C44.5754 32.9083 45.747 31.5722 45.9815 31.2932C45.4508 31.559 43.8159 32.2945 41.7835 31.9263H41.7845ZM46.3811 27.1367C44.9663 27.0528 43.7715 26.8065 42.8576 26.5548C42.9812 26.7208 44.2386 28.35 46.5355 28.4101C48.6673 28.4657 49.9798 27.127 50.1506 26.9451C49.173 27.1041 47.8846 27.2259 46.3801 27.1367H46.3811ZM33.8729 32.1003C34.146 32.8703 34.8119 34.3962 36.3859 35.7976C37.9107 37.1548 39.5359 37.7252 40.3774 37.9619C40.5318 37.7888 40.749 37.5018 40.8947 37.1053C41.023 36.7583 41.051 36.4519 41.052 36.2417C40.2548 36.1287 39.2454 35.9035 38.1597 35.4373C35.8696 34.4536 34.5195 32.9471 33.8719 32.1003H33.8729ZM49.2328 23.8297C47.1618 23.8033 45.6496 23.6999 43.8767 23.6081C43.6104 23.594 42.4735 23.5684 40.1998 23.518C38.7793 23.4862 37.93 23.4765 37.0113 23.9092C36.3183 24.2359 35.857 24.6854 35.581 25.0077C38.6596 24.598 40.9449 24.9097 42.4977 25.2921C43.3797 25.5093 45.1139 26.017 47.3596 26.1036C48.0786 26.1309 49.1161 26.1265 50.2838 25.7124C50.6139 25.5958 51.1948 25.3609 51.8279 24.9309C52.7573 24.2995 53.3074 23.5825 53.6017 23.1269C53.1684 23.2876 52.5411 23.4915 51.7623 23.6381C50.6843 23.8412 49.8399 23.8377 49.2338 23.8297H49.2328ZM52.6974 20.2411C50.8937 21.0553 49.2647 21.3493 47.572 21.6539C45.8329 21.9674 44.3438 22.0875 43.2514 22.1352C45.5289 22.5229 47.432 22.5502 48.7706 22.4964C51.6243 22.3798 52.8904 21.8517 53.4357 21.5948C54.3245 21.1753 54.9036 20.717 55.0454 20.6031C56.6465 19.3121 57.2603 17.6706 57.5092 16.7407C55.72 18.6922 53.8671 19.7139 52.6965 20.2429L52.6974 20.2411ZM30.3639 32.1003C29.7173 32.9462 28.3662 34.4536 26.0761 35.4373C24.9904 35.9035 23.9809 36.1296 23.1838 36.2417C23.1848 36.4519 23.2128 36.7583 23.3411 37.1053C23.4878 37.5027 23.704 37.7888 23.8584 37.9619C24.6999 37.7252 26.3251 37.1548 27.8499 35.7976C29.4239 34.3962 30.0898 32.8694 30.3629 32.1003H30.3639ZM30.7084 34.3547C30.8368 33.6209 30.8532 32.993 30.8397 32.5356C30.443 33.5379 29.6883 35.0558 28.2446 36.564C27.1271 37.7314 25.967 38.5058 25.0908 38.9986C25.3118 39.3023 25.6524 39.6988 26.1504 40.0812C26.5789 40.4097 26.9958 40.6287 27.3249 40.7726C28.6065 39.3067 29.3621 37.9654 29.8051 37.0303C30.4671 35.6333 30.6515 34.6796 30.7084 34.3547ZM35.9912 36.564C34.5474 35.0558 33.7928 33.5379 33.3961 32.5356C33.3826 32.9921 33.399 33.62 33.5274 34.3547C33.5843 34.6796 33.7686 35.6333 34.4307 37.0303C34.8736 37.9654 35.6293 39.3076 36.9109 40.7726C37.24 40.6287 37.6569 40.4097 38.0854 40.0812C38.5833 39.6988 38.924 39.3023 39.145 38.9986C38.2687 38.5058 37.1087 37.7314 35.9912 36.564ZM27.7843 29.7099C28.0468 28.7633 27.8229 27.9571 27.6858 27.5756C27.4446 28.1725 26.8829 29.3099 25.6486 30.3112C25.1574 30.7095 24.1566 31.5007 22.5932 31.7841C20.5608 32.1524 18.9259 31.4168 18.3951 31.151C18.6287 31.4301 19.8003 32.7661 21.9003 33.0328C24.062 33.3074 25.6138 32.2451 26.0095 31.9643C26.4805 31.6305 27.4397 30.9514 27.7833 29.7099H27.7843ZM21.3859 30.2538C21.9109 30.2238 22.5623 30.1814 23.371 29.9298C23.8555 29.7788 25.8561 29.1553 26.8308 27.3654C27.1415 26.795 27.2544 26.2784 27.3017 25.9711C25.8223 26.8568 24.504 27.467 23.5129 27.8767C22.4185 28.3288 21.3772 28.7527 19.919 29.0644C18.4511 29.3779 17.1927 29.4415 16.3174 29.4406C18.537 30.2777 20.3513 30.3148 21.3849 30.2547L21.3859 30.2538ZM32.9802 34.5957C32.8248 33.6986 32.765 32.9542 32.7389 32.4606C32.6916 33.0919 32.6501 33.7304 32.6154 34.3767C32.4793 36.9429 32.4639 39.4109 32.5411 41.7713C33.041 41.7987 33.6432 41.7925 34.3149 41.7033C34.7047 41.6512 35.0589 41.5797 35.3745 41.5002C34.89 40.4909 34.5349 39.6299 34.2907 38.9977C33.8043 37.7402 33.2909 36.3883 32.9792 34.594L32.9802 34.5957ZM31.4969 32.4606C31.4708 32.9533 31.411 33.6986 31.2556 34.5957C30.9439 36.3892 30.4314 37.7411 29.9441 38.9995C29.699 39.6317 29.3448 40.4927 28.8603 41.502C29.1759 41.5814 29.5301 41.653 29.92 41.7051C30.5926 41.7943 31.1938 41.8004 31.6937 41.7731C31.7719 39.4127 31.7565 36.9446 31.6194 34.3785C31.5847 33.7321 31.5442 33.0937 31.4959 32.4623L31.4969 32.4606Z"
                  fill="#F2F2F2"
                />
                <path
                  d="M46.8068 51.7452L44.8216 47.111H44.4269L43.3981 47.4324V47.6249C43.5641 47.6408 43.6896 47.67 43.7755 47.7132C43.8614 47.7565 43.9424 47.8395 44.0196 47.9623L42.5363 51.4388C42.2652 52.0772 41.9071 52.426 41.4642 52.4861V52.7015H43.4493V52.4861C43.2322 52.4781 43.0623 52.4075 42.9417 52.2741C42.8201 52.1408 42.7593 51.9863 42.7593 51.8114C42.7593 51.6366 42.796 51.452 42.8712 51.2816L43.154 50.6149H45.1826L45.6632 51.7372C45.7462 51.9077 45.7877 52.0445 45.7877 52.1496C45.7877 52.2697 45.7326 52.351 45.6226 52.3933C45.5126 52.4357 45.3476 52.4666 45.1276 52.4878V52.7033H47.6744V52.4878C47.4398 52.441 47.2652 52.3704 47.1513 52.2777C47.0364 52.1849 46.9226 52.0075 46.8087 51.7461L46.8068 51.7452ZM41.9226 52.4869C42.0625 52.3925 42.1716 52.2997 42.2507 52.2079C42.3289 52.1161 42.407 52.0057 42.4842 51.8741C42.4784 51.9059 42.4755 51.9483 42.4755 52.0039C42.4755 52.1973 42.5653 52.358 42.7458 52.4869H41.9226ZM43.2563 50.3641L44.1615 48.2492L45.0745 50.3641H43.2563ZM46.0974 52.3889C46.0241 52.4543 45.9208 52.4869 45.7867 52.4869H45.6921C45.7867 52.4216 45.8494 52.3721 45.8813 52.3377C45.9131 52.3042 45.9286 52.2485 45.9286 52.1726C45.9286 52.0551 45.8813 51.8918 45.7867 51.6825L44.2686 48.1318C44.2059 47.9826 44.1393 47.8634 44.0689 47.7751C43.9984 47.6859 43.8952 47.617 43.7581 47.5667C43.8093 47.5561 43.8768 47.5508 43.9598 47.5508C44.0998 47.5508 44.2098 47.5879 44.2899 47.6629C44.37 47.7371 44.4472 47.8634 44.5215 48.0417L46.0521 51.5924C46.1553 51.8406 46.2065 52.0295 46.2065 52.1576C46.2065 52.2468 46.1698 52.3236 46.0974 52.3889ZM7.40796 47.3821C7.67142 47.4033 7.86637 47.4704 7.99569 47.5843C8.12404 47.6982 8.1887 47.8731 8.1887 48.108C8.1887 48.2175 8.1694 48.3393 8.1308 48.4727C8.0922 48.606 8.04394 48.7437 7.987 48.885L7.07405 51.2904L5.9594 48.3791C5.82526 48.0391 5.7577 47.806 5.7577 47.6806C5.7577 47.5552 5.81657 47.4819 5.93527 47.4448C6.05398 47.4086 6.21611 47.3874 6.42166 47.3821V47.1666H3.82274V47.3821C3.98294 47.3901 4.08814 47.3971 4.13832 47.4033C4.1885 47.4095 4.2493 47.4351 4.32072 47.4801C4.39213 47.5243 4.46258 47.6011 4.5311 47.7097C4.59962 47.8183 4.66814 47.9773 4.73666 48.1866L3.55349 51.2904L2.40024 48.2492C2.30856 47.9932 2.2632 47.8086 2.2632 47.6956C2.2632 47.481 2.45621 47.3742 2.84224 47.3742C2.86829 47.3742 2.8876 47.3742 2.90014 47.3759C2.91269 47.3768 2.92813 47.3795 2.9455 47.3821V47.1666H0.419922V47.3821C0.603284 47.3821 0.740324 47.4112 0.833936 47.4686C0.926582 47.526 1.00282 47.6152 1.06169 47.7353C1.12056 47.8554 1.22286 48.108 1.36858 48.493L3.00244 52.8093H3.22923L4.87177 48.493L6.523 52.8093H6.76716L8.3325 48.6934C8.47822 48.3146 8.6307 48.0223 8.78897 47.8183C8.94724 47.6143 9.13157 47.4695 9.34002 47.383V47.1675H7.40989V47.383L7.40796 47.3821ZM3.16071 52.3713C3.14527 52.4172 3.12886 52.4552 3.11342 52.4852C3.09798 52.5152 3.07964 52.5496 3.05938 52.5894L1.39174 48.1874C1.30296 47.9517 1.22575 47.7751 1.16013 47.6558C1.0945 47.5366 1.00958 47.4457 0.907282 47.383C1.0559 47.3724 1.17074 47.3865 1.25277 47.4263C1.33384 47.466 1.40332 47.5358 1.45833 47.6382C1.51431 47.7397 1.59151 47.9234 1.69188 48.1874L3.11149 51.9386C3.15974 52.0507 3.18484 52.1558 3.18484 52.2521C3.18484 52.2856 3.17711 52.3262 3.16167 52.3713H3.16071ZM6.5809 52.5655L4.87853 48.1239C4.7357 47.7547 4.57936 47.5075 4.41143 47.3821C4.57164 47.3848 4.6913 47.4059 4.7714 47.4466C4.8515 47.4872 4.9123 47.5428 4.9538 47.6135C4.9953 47.6841 5.05417 47.8166 5.13137 48.0099L6.6195 51.875C6.67644 52.0242 6.70539 52.1284 6.70539 52.1885C6.70539 52.283 6.6639 52.4084 6.5809 52.5655ZM8.78511 47.3821C8.67896 47.458 8.5892 47.5481 8.51489 47.6532C8.44058 47.7574 8.37303 47.8766 8.31319 48.0099C8.30451 47.866 8.27363 47.745 8.22055 47.647C8.16747 47.549 8.07289 47.4607 7.93489 47.3821H8.78415H8.78511ZM62.2082 49.3663C62.0307 49.5588 61.8666 49.7133 61.717 49.829C61.5674 49.9447 61.4082 50.0321 61.2393 50.0913C61.0704 50.1504 60.8793 50.1805 60.667 50.1805C60.4914 50.1805 60.3524 50.176 60.2511 50.1672C60.1498 50.1584 60.0716 50.1372 60.0175 50.1019C59.9635 50.0674 59.9259 50.0144 59.9066 49.9429C59.8863 49.8714 59.8757 49.7707 59.8757 49.6418V48.4762H60.5532C60.777 48.4762 60.944 48.5256 61.0531 48.6237C61.1621 48.7217 61.2287 48.8789 61.2519 49.0943H61.4314V47.6903H61.2287C61.2229 48.1159 60.9662 48.3287 60.4586 48.3287H59.8766V47.1737C59.8766 47.073 59.8911 46.9918 59.9201 46.93C59.949 46.8682 60.0079 46.8196 60.0967 46.7852C60.1855 46.7507 60.3177 46.7331 60.4933 46.7331C60.7153 46.7331 60.9266 46.7649 61.1264 46.8284C61.3262 46.892 61.5066 46.9768 61.6678 47.0819C61.829 47.187 61.966 47.3044 62.078 47.4333H62.2864L61.9361 46.5883H58.513V46.734C58.7041 46.7428 58.8411 46.7578 58.9241 46.7781C59.0071 46.7984 59.066 46.8373 59.1007 46.8938C59.1355 46.9503 59.1528 47.0404 59.1528 47.164V49.7848C59.1528 49.8873 59.1335 49.9668 59.0959 50.0224C59.0583 50.078 58.9946 50.1178 58.9048 50.1416C58.8151 50.1654 58.6838 50.1796 58.512 50.1831V50.3288H62.077L62.4389 49.3698H62.2073L62.2082 49.3663ZM61.1949 48.1292V48.6484C61.1505 48.576 61.0974 48.5212 61.0357 48.4841C60.9739 48.447 60.89 48.4153 60.7838 48.3888C60.9826 48.334 61.1196 48.2475 61.1949 48.1292ZM61.6639 46.7331L61.8811 47.1145C61.7556 47.028 61.6369 46.9538 61.525 46.892C61.413 46.8302 61.2847 46.7772 61.1399 46.7331H61.6639ZM59.4337 49.701C59.4337 49.8687 59.4096 49.9906 59.3623 50.0657C59.315 50.1407 59.2108 50.1796 59.0505 50.1813C59.1162 50.1407 59.1654 50.0904 59.1982 50.0303C59.231 49.9703 59.2474 49.8758 59.2474 49.7469V47.1843C59.2474 47.0554 59.232 46.9609 59.2021 46.9017C59.1721 46.8426 59.121 46.7949 59.0496 46.7596C59.1924 46.7631 59.2918 46.7896 59.3478 46.8382C59.4038 46.8867 59.4317 46.9865 59.4317 47.1366V49.7018L59.4337 49.701ZM61.7884 50.1805H61.2847C61.4545 50.0974 61.5858 50.0277 61.6784 49.9721C61.7711 49.9164 61.8743 49.8316 61.9882 49.7186L61.7884 50.1796V50.1805ZM13.8363 47.383C14.1017 47.4015 14.2937 47.4263 14.4105 47.4572C14.5272 47.489 14.6102 47.5481 14.6595 47.6355C14.7077 47.723 14.7328 47.8634 14.7328 48.0576V49.7054H11.6842V48.2696C11.6842 48.0161 11.6996 47.8316 11.7315 47.7168C11.7633 47.602 11.8405 47.5181 11.9631 47.466C12.0856 47.4139 12.2893 47.3865 12.572 47.3839V47.1684H9.70771V47.3839C10.0561 47.3971 10.2945 47.4422 10.4219 47.519C10.5493 47.5958 10.6129 47.76 10.6129 48.0117V51.6922C10.6129 51.8697 10.6004 52.0083 10.5763 52.1081C10.5521 52.2079 10.5078 52.2847 10.4431 52.3395C10.3784 52.3942 10.2916 52.4313 10.1816 52.4516C10.0715 52.471 9.91327 52.4834 9.70771 52.4887V52.7042H12.572V52.4887C12.3433 52.4702 12.1735 52.4481 12.0634 52.4216C11.9534 52.3951 11.8704 52.3527 11.8145 52.2944C11.7585 52.2353 11.7228 52.1576 11.7073 52.0587C11.6919 51.9607 11.6842 51.815 11.6842 51.6216V49.9968H14.7328V51.7072C14.7328 51.9377 14.7135 52.1019 14.6749 52.2017C14.6363 52.3015 14.5581 52.3704 14.4414 52.4101C14.3246 52.449 14.1229 52.4755 13.8363 52.4887V52.7042H16.7006V52.4887C16.4236 52.494 16.2229 52.471 16.0984 52.4198C15.9739 52.3686 15.8938 52.2883 15.8581 52.1788C15.8224 52.0693 15.804 51.9068 15.804 51.6922V48.2704C15.804 48.0011 15.8224 47.8086 15.86 47.6938C15.8967 47.579 15.9748 47.5004 16.0936 47.458C16.2123 47.4165 16.414 47.3918 16.7006 47.3839V47.1684H13.8363V47.3839V47.383ZM11.0279 51.7699C11.0279 52.011 10.9941 52.1902 10.9276 52.3095C10.86 52.4287 10.7442 52.4878 10.5782 52.4878H10.4537C10.5396 52.4357 10.611 52.3624 10.668 52.2697C10.7249 52.177 10.7538 52.0163 10.7538 51.7893V48.0426C10.7538 47.836 10.7307 47.6876 10.6853 47.5976C10.64 47.5075 10.5628 47.436 10.4537 47.3839C10.6371 47.3733 10.7683 47.3953 10.8484 47.451C10.9285 47.5057 10.9787 47.5905 10.999 47.7044C11.0192 47.8183 11.0289 48.0011 11.0289 48.2519V51.7717L11.0279 51.7699ZM14.6903 47.383C14.8901 47.383 15.0165 47.4404 15.0677 47.5561C15.1188 47.6709 15.1449 47.8492 15.1449 48.0894V51.9818C15.1449 52.1576 15.1102 52.2856 15.0416 52.366C14.9731 52.4472 14.8612 52.4878 14.7068 52.4878H14.5649C14.6739 52.4278 14.7521 52.3589 14.8004 52.2821C14.8486 52.2053 14.8737 52.0693 14.8737 51.8759V47.9879C14.8737 47.813 14.8525 47.6806 14.809 47.5914C14.7656 47.5022 14.6846 47.4333 14.5649 47.383H14.6894H14.6903ZM20.9942 47.1675L20.694 48.4621H20.9556C21.1524 48.2422 21.302 48.0806 21.4033 47.9773C21.5047 47.874 21.633 47.7768 21.7874 47.685C21.9418 47.5932 22.1329 47.5207 22.3617 47.4669C22.5904 47.413 22.8587 47.3856 23.1675 47.3821V51.7964C23.1675 52.0004 23.1337 52.1505 23.0671 52.2459C22.9996 52.3412 22.9002 52.4039 22.767 52.434C22.6338 52.464 22.4437 52.4816 22.1947 52.4869V52.7024H25.2009V52.4869C24.9548 52.479 24.7637 52.4578 24.6267 52.4242C24.4896 52.3907 24.3912 52.328 24.3304 52.2379C24.2706 52.1479 24.2406 52.0163 24.2406 51.8441V47.383C24.5832 47.3883 24.8621 47.4068 25.0745 47.4377C25.2877 47.4695 25.5136 47.5631 25.7539 47.7203C25.9942 47.8775 26.2238 48.1247 26.4439 48.4621H26.7527L26.4439 47.1675H20.9932H20.9942ZM21.3117 47.6603C21.2026 47.745 21.0762 47.8757 20.9295 48.0506L21.0965 47.3839H21.7913C21.58 47.4837 21.4197 47.5755 21.3107 47.6603H21.3117ZM23.5844 51.7072C23.5844 51.9871 23.5554 52.1876 23.4985 52.3077C23.4416 52.4278 23.3084 52.4878 23.0999 52.4878H23.0054C23.1221 52.4145 23.2022 52.3298 23.2456 52.2326C23.2881 52.1355 23.3103 52.0066 23.3103 51.8441V47.383C23.4165 47.3909 23.4879 47.4324 23.5265 47.5084C23.5651 47.5843 23.5844 47.6982 23.5844 47.8501V51.7072ZM25.8147 47.6267C25.6689 47.5278 25.4875 47.4466 25.2704 47.3839H26.0762L26.2692 48.0117C26.1119 47.8545 25.9604 47.7265 25.8147 47.6276V47.6267ZM40.1951 51.9686C39.9731 52.1399 39.7377 52.2697 39.4877 52.3571C39.2378 52.4446 38.955 52.4887 38.6404 52.4887C38.3798 52.4887 38.1752 52.4825 38.0247 52.4693C37.8751 52.456 37.7593 52.4242 37.6792 52.373C37.5991 52.3218 37.5441 52.2432 37.5141 52.1373C37.4842 52.0313 37.4688 51.8829 37.4688 51.6922V49.9659H38.4725C38.8044 49.9659 39.0505 50.0383 39.2127 50.184C39.3738 50.3288 39.4723 50.561 39.506 50.8807H39.7714V48.8011H39.4713C39.4626 49.4316 39.0824 49.7469 38.3306 49.7469H37.4688V48.0364C37.4688 47.8872 37.49 47.7671 37.5335 47.6753C37.5759 47.5834 37.6637 47.5128 37.795 47.4616C37.9262 47.4104 38.1221 47.3848 38.3827 47.3848C38.7118 47.3848 39.0235 47.4316 39.3198 47.526C39.6161 47.6205 39.8834 47.745 40.1217 47.9004C40.3601 48.0559 40.5628 48.2298 40.7288 48.4206H41.0376L40.5184 47.1693H35.4499V47.3848C35.7326 47.398 35.9363 47.4192 36.0588 47.4492C36.1814 47.4792 36.2692 47.5366 36.3204 47.6196C36.3715 47.7035 36.3976 47.8369 36.3976 48.0197V51.8997C36.3976 52.0516 36.3696 52.1682 36.3136 52.2512C36.2576 52.3333 36.1631 52.3925 36.0308 52.4278C35.8977 52.4631 35.7046 52.4834 35.4499 52.4887V52.7042H40.7288L41.2644 51.2842H40.9218C40.6583 51.5695 40.4161 51.7973 40.1951 51.9686ZM39.4211 49.4519V50.2211C39.3555 50.1142 39.2764 50.033 39.1856 49.9782C39.094 49.9235 38.9695 49.8758 38.8122 49.8369C39.1065 49.7557 39.3092 49.6277 39.4211 49.4519ZM40.116 47.3839L40.4373 47.949C40.2511 47.821 40.0754 47.7106 39.9094 47.6196C39.7435 47.5278 39.5533 47.4501 39.3391 47.3839H40.115H40.116ZM36.8145 51.7787C36.8145 52.0269 36.7797 52.207 36.7093 52.3183C36.6388 52.4295 36.4854 52.4861 36.248 52.4887C36.3455 52.4287 36.4178 52.3536 36.467 52.2653C36.5153 52.1761 36.5404 52.0366 36.5404 51.8459V48.0514C36.5404 47.8607 36.5182 47.7212 36.4738 47.6338C36.4294 47.5463 36.3541 47.4766 36.2489 47.4236C36.4603 47.4289 36.6079 47.4678 36.6909 47.5393C36.7739 47.6117 36.8154 47.7583 36.8154 47.9808V51.7787H36.8145ZM40.3003 52.4887H39.5543C39.8062 52.366 40.0002 52.2627 40.1372 52.1805C40.2742 52.0984 40.4277 51.973 40.5956 51.8061L40.2993 52.4887H40.3003ZM51.8396 50.5187C52.1195 50.5398 52.3173 50.5716 52.4312 50.6149C52.545 50.6582 52.6174 50.7324 52.6473 50.8383C52.6773 50.9443 52.6927 51.1297 52.6927 51.3937C52.6927 51.5615 52.6811 51.701 52.658 51.8132C52.6348 51.9253 52.5846 52.0304 52.5074 52.1267C52.4099 52.2521 52.2661 52.3545 52.076 52.4322C51.8859 52.5099 51.6803 52.5496 51.4603 52.5496C51.0859 52.5496 50.7394 52.4401 50.42 52.2203C50.1005 52.0004 49.8486 51.6922 49.6614 51.294C49.4742 50.8966 49.3806 50.4436 49.3806 49.9358C49.3806 49.4281 49.4655 48.9733 49.6354 48.5786C49.8052 48.1839 50.0446 47.8748 50.3534 47.6523C50.6622 47.4298 51.0135 47.3185 51.4082 47.3185C51.6166 47.3185 51.8183 47.3486 52.0123 47.4086C52.2063 47.4686 52.3926 47.5614 52.5701 47.685C52.7477 47.8095 52.9185 47.9684 53.0845 48.1618C53.2505 48.3552 53.3991 48.5751 53.5304 48.8206H53.762L53.6896 47.0907H53.3769C53.2737 47.2214 53.0893 47.2867 52.8239 47.2867C52.7265 47.2867 52.4862 47.2488 52.1011 47.1728C51.717 47.0969 51.3773 47.0589 51.083 47.0589C50.6458 47.0589 50.2443 47.1384 49.8776 47.2964C49.5118 47.4545 49.1982 47.6709 48.9386 47.9437C48.678 48.2175 48.4792 48.5301 48.3403 48.8833C48.2013 49.2365 48.1318 49.5985 48.1318 49.9703C48.1318 50.342 48.2022 50.712 48.3422 51.0573C48.4821 51.4026 48.6896 51.7072 48.9637 51.9712C49.2378 52.2353 49.5765 52.441 49.9799 52.5876C50.3833 52.7342 50.8349 52.8075 51.3348 52.8075C51.606 52.8075 51.882 52.7836 52.16 52.7368C52.4389 52.69 52.7149 52.6238 52.988 52.539C53.2611 52.4543 53.5159 52.3554 53.7533 52.2423V51.3673C53.7533 51.1138 53.7716 50.9337 53.8093 50.8277C53.8459 50.7217 53.9203 50.6485 54.0303 50.6078C54.1403 50.5672 54.3372 50.5363 54.6199 50.516V50.2926H51.8367V50.516L51.8396 50.5187ZM52.5595 47.4642C52.6222 47.4784 52.6792 47.489 52.7313 47.496C52.7834 47.5031 52.8394 47.5057 52.9031 47.5057C52.9861 47.5057 53.0922 47.4819 53.2206 47.4351L53.2804 48.1495C53.0034 47.836 52.7188 47.5976 52.4273 47.4351C52.4534 47.4404 52.4978 47.4501 52.5605 47.4642H52.5595ZM50.1179 52.5143C49.9567 52.4631 49.7917 52.3925 49.6228 52.3024C49.4539 52.2123 49.2879 52.094 49.1258 51.9474C48.8595 51.7019 48.652 51.3999 48.5014 51.0432C48.3518 50.6864 48.2766 50.3244 48.2766 49.9579C48.2766 49.6674 48.3219 49.3857 48.4136 49.112C48.5053 48.8382 48.6385 48.5795 48.8122 48.3349C48.9868 48.0903 49.1828 47.8828 49.4018 47.7106C49.6209 47.5393 49.8544 47.4095 50.1034 47.3203C50.2231 47.2761 50.3862 47.2355 50.5917 47.1984C50.3949 47.2797 50.2241 47.3574 50.0793 47.4316C49.9345 47.5057 49.7811 47.6126 49.618 47.7512C49.2889 48.0364 49.0303 48.3764 48.8402 48.7711C48.65 49.1658 48.5545 49.5588 48.5545 49.9482C48.5545 50.2829 48.6288 50.6202 48.7774 50.9584C48.926 51.2975 49.1364 51.5995 49.4076 51.8671C49.6132 52.0657 49.8149 52.2212 50.0127 52.3324C50.2096 52.4437 50.4499 52.5567 50.7326 52.6715C50.4837 52.6167 50.2791 52.5638 50.1169 52.5126L50.1179 52.5143ZM52.9262 50.6432C53.0131 50.7076 53.0681 50.7959 53.0893 50.9098C53.1106 51.0238 53.1212 51.2101 53.1212 51.4688C53.1212 51.6781 53.0951 51.8476 53.042 51.9792C52.989 52.1099 52.9002 52.2167 52.7767 52.2989C52.6522 52.381 52.4775 52.4446 52.2517 52.4896C52.4572 52.3872 52.6058 52.2591 52.6975 52.1028C52.7892 51.9474 52.8346 51.7893 52.8346 51.6304V51.1121C52.8346 50.9522 52.8066 50.8313 52.7506 50.7491C52.6946 50.667 52.6136 50.5902 52.5084 50.5195C52.6995 50.5381 52.8394 50.5787 52.9262 50.6432ZM62.4206 51.1633C62.3067 51.1783 61.8502 51.2419 61.3648 51.4291C60.8427 51.6313 60.8784 51.7487 60.4441 51.9333C60.0301 52.1099 59.6392 52.1311 58.8585 52.1743C57.9813 52.2229 57.6618 52.1258 57.4785 52.0543C57.27 51.9721 57.1127 51.8732 57.0104 51.7999V47.9587C57.0104 47.7786 57.0345 47.6391 57.0828 47.5411C57.131 47.443 57.215 47.3759 57.3337 47.3388C57.4524 47.3026 57.6232 47.2841 57.8461 47.2841H57.9793V47.0686H54.9992V47.2841C55.2791 47.2841 55.4875 47.3079 55.6226 47.3547C55.7587 47.4015 55.8456 47.4748 55.8842 47.5746C55.9228 47.6744 55.9421 47.8219 55.9421 48.0179V51.7302C55.9421 51.898 55.9199 52.0278 55.8755 52.1205C55.8311 52.2132 55.7471 52.2812 55.6246 52.3245C55.502 52.3677 55.3119 52.3889 55.0542 52.3889H54.9982V52.6044C57.5547 52.5964 60.1112 52.5885 62.6676 52.5805C63.0507 52.1143 63.4339 51.6489 63.817 51.1827C63.4339 51.1677 63.0507 51.1527 62.6676 51.1377C62.6078 51.1421 62.5219 51.15 62.4186 51.1633H62.4206ZM56.3551 51.8317C56.3551 52.2141 56.2104 52.4048 55.9218 52.4048C55.9102 52.4048 55.8861 52.4022 55.8485 52.3969C55.8118 52.3916 55.7867 52.3889 55.7761 52.3889C55.8793 52.3368 55.9556 52.275 56.0058 52.2044C56.0559 52.1337 56.081 52.0348 56.081 51.9059V47.8881C56.081 47.6947 56.0598 47.5614 56.0164 47.4881C55.9739 47.4148 55.8938 47.3468 55.7761 47.2841H55.9044C56.1158 47.2841 56.2441 47.3486 56.2885 47.4766C56.3329 47.6046 56.3551 47.8007 56.3551 48.0647V51.8317ZM62.5219 52.3554C62.0123 52.3801 61.5037 52.4057 60.9942 52.4304C61.0994 52.2627 61.3696 51.8812 61.8975 51.6189C62.5007 51.3187 63.0729 51.3558 63.2775 51.3787C63.0256 51.7046 62.7738 52.0304 62.5219 52.3554ZM31.8675 51.9695C31.6456 52.1408 31.4101 52.2706 31.1602 52.358C30.9102 52.4454 30.6274 52.4896 30.3128 52.4896C30.0523 52.4896 29.8477 52.4834 29.6971 52.4702C29.5475 52.4569 29.4317 52.4251 29.3516 52.3739C29.2715 52.3227 29.2165 52.2441 29.1866 52.1381C29.1567 52.0322 29.1412 51.8838 29.1412 51.6931V49.9668H30.1449C30.4769 49.9668 30.723 50.0392 30.8851 50.1849C31.0463 50.3297 31.1447 50.5619 31.1785 50.8816H31.4439V48.802H31.1437C31.1351 49.4325 30.7548 49.7478 30.003 49.7478H29.1412V48.0373C29.1412 47.8881 29.1625 47.768 29.2059 47.6762C29.2484 47.5843 29.3362 47.5137 29.4674 47.4625C29.5987 47.4112 29.7946 47.3856 30.0552 47.3856C30.3842 47.3856 30.696 47.4324 30.9922 47.5269C31.2885 47.6214 31.5558 47.7459 31.7942 47.9013C32.0326 48.0567 32.2352 48.2307 32.4012 48.4214H32.71L32.1908 47.1702H27.1223V47.3856C27.4051 47.3989 27.6087 47.4201 27.7313 47.4501C27.8538 47.4801 27.9417 47.5375 27.9928 47.6205C28.044 47.7044 28.07 47.8378 28.07 48.0205V51.9006C28.07 52.0525 28.042 52.169 27.9861 52.2521C27.9301 52.3342 27.8355 52.3933 27.7033 52.4287C27.5701 52.464 27.3771 52.4843 27.1223 52.4896V52.7051H32.4012L32.9368 51.2851H32.5942C32.3308 51.5704 32.0885 51.7982 31.8675 51.9695ZM31.0936 49.4528V50.222C31.0279 50.1151 30.9488 50.0339 30.8581 49.9791C30.7664 49.9244 30.6419 49.8767 30.4846 49.8378C30.779 49.7566 30.9816 49.6286 31.0936 49.4528ZM31.7884 47.3848L32.1098 47.9499C31.9235 47.8219 31.7479 47.7115 31.5819 47.6205C31.4159 47.5287 31.2258 47.451 31.0115 47.3848H31.7874H31.7884ZM28.4869 51.7796C28.4869 52.0278 28.4522 52.2079 28.3817 52.3192C28.3113 52.4304 28.1578 52.4869 27.9204 52.4896C28.0179 52.4295 28.0903 52.3545 28.1395 52.2662C28.1878 52.177 28.2128 52.0375 28.2128 51.8467V48.0523C28.2128 47.8616 28.1906 47.7221 28.1463 47.6347C28.1019 47.5472 28.0266 47.4775 27.9214 47.4245C28.1327 47.4298 28.2804 47.4686 28.3634 47.5402C28.4464 47.6126 28.4879 47.7592 28.4879 47.9817V51.7796H28.4869ZM31.9727 52.4896H31.2267C31.4786 52.3668 31.6726 52.2635 31.8096 52.1814C31.9467 52.0993 32.1001 51.9739 32.2681 51.807L31.9718 52.4896H31.9727ZM17.3163 47.3848C17.5421 47.4033 17.7062 47.421 17.8075 47.4377C17.9088 47.4545 17.9899 47.4854 18.0497 47.5296C18.1096 47.5737 18.1501 47.647 18.1723 47.7477C18.1935 47.8484 18.2041 48.0038 18.2041 48.2122V51.716C18.2041 51.9359 18.1849 52.0958 18.1462 52.1964C18.1076 52.2971 18.0237 52.3704 17.8934 52.4163C17.7631 52.4622 17.5711 52.4861 17.3163 52.4887V52.7042H20.1719V52.4887C19.9548 52.4728 19.8033 52.4578 19.7174 52.4437C19.6315 52.4295 19.5562 52.4022 19.4906 52.3633C19.425 52.3236 19.3738 52.2591 19.3381 52.1673C19.3024 52.0754 19.2841 51.9527 19.2841 51.7982V48.1804C19.2841 48.1883 19.287 48.1601 19.2927 48.0956C19.2985 48.0311 19.3043 47.9446 19.3101 47.8342C19.3217 47.6567 19.4008 47.5384 19.5485 47.4792C19.6952 47.4201 19.9036 47.3883 20.1719 47.383V47.1675H17.3163V47.383V47.3848ZM18.5043 47.5066C18.5844 47.5958 18.624 47.7291 18.624 47.9066V52.0693C18.624 52.2423 18.567 52.3536 18.4522 52.4048C18.3373 52.456 18.1877 52.4843 18.0015 52.4896C18.1269 52.4269 18.2157 52.3642 18.2669 52.3015C18.318 52.2388 18.3441 52.1408 18.3441 52.0075V48.0991C18.347 48.0779 18.3489 48.0585 18.3508 48.04C18.3518 48.0214 18.3528 48.002 18.3528 47.9808C18.3528 47.6876 18.2437 47.489 18.0266 47.3848C18.264 47.3768 18.4223 47.4174 18.5024 47.5066H18.5043Z"
                  fill="#F7F7F7"
                />
              </svg>