<svg width="40" height="40" viewBox="0 0 40 40" fill="none" xmlns="http://www.w3.org/2000/svg">
<path d="M28.3333 35.4166H11.6666C5.58331 35.4166 2.08331 31.9166 2.08331 25.8333V14.1666C2.08331 8.08325 5.58331 4.58325 11.6666 4.58325H28.3333C34.4166 4.58325 37.9166 8.08325 37.9166 14.1666V25.8333C37.9166 31.9166 34.4166 35.4166 28.3333 35.4166ZM11.6666 7.08325C6.89998 7.08325 4.58331 9.39992 4.58331 14.1666V25.8333C4.58331 30.5999 6.89998 32.9166 11.6666 32.9166H28.3333C33.1 32.9166 35.4166 30.5999 35.4166 25.8333V14.1666C35.4166 9.39992 33.1 7.08325 28.3333 7.08325H11.6666Z" fill="#041461"/>
<path d="M19.9997 21.4499C18.5996 21.4499 17.183 21.0166 16.0997 20.1333L10.883 15.9666C10.3496 15.5333 10.2497 14.7499 10.683 14.2166C11.1163 13.6833 11.8997 13.5833 12.433 14.0166L17.6496 18.1833C18.9163 19.2 21.0663 19.2 22.333 18.1833L27.5496 14.0166C28.083 13.5833 28.883 13.6666 29.2997 14.2166C29.733 14.7499 29.6497 15.55 29.0997 15.9666L23.883 20.1333C22.8163 21.0166 21.3996 21.4499 19.9997 21.4499Z" fill="#041461"/>
</svg>
