<svg width="40" height="40" viewBox="0 0 40 40" fill="none" xmlns="http://www.w3.org/2000/svg">
<path d="M37.9167 10.9167C37.9167 12.8001 37.4667 14.7834 36.6 16.8334C35.75 18.8334 34.5834 20.8501 33.1667 22.8167C31.7334 24.7667 30.1334 26.6501 28.3834 28.4334C26.6 30.2001 24.7167 31.8001 22.7834 33.2167C20.7834 34.6501 18.7834 35.8001 16.85 36.6167C14.7834 37.4834 12.7834 37.9167 10.9 37.9167C9.60004 37.9167 8.36671 37.6834 7.21671 37.2334C6.03337 36.7667 4.93337 36.0167 3.98337 35.0001C2.71671 33.7167 2.08337 32.2501 2.08337 30.6834C2.08337 30.0334 2.23337 29.3667 2.50004 28.8001C2.80004 28.1501 3.25004 27.6001 3.85004 27.2001L9.30004 23.3334C9.78337 22.9834 10.25 22.7167 10.7167 22.5334C11.2167 22.3167 11.7167 22.2001 12.2 22.2001C12.8334 22.2001 13.45 22.3834 14.0334 22.7334C14.4834 22.9834 14.9667 23.3667 15.45 23.8501L16.6334 24.9834C16.6834 24.9667 16.7167 24.9501 16.75 24.9334C17.1 24.7334 17.7 24.3334 18.6 23.5667C19.5334 22.7501 20.3834 21.9834 21.1667 21.2167C22.1334 20.2334 22.9 19.4167 23.5334 18.6501C24.3334 17.7001 24.7334 17.0834 24.9167 16.7167L25 16.7501L23.8 15.5334C23.2834 15.0167 22.9 14.5167 22.65 14.0334C22.0834 13.1167 21.9834 11.9501 22.4667 10.7834C22.65 10.3501 22.9 9.88341 23.25 9.38341L27.1834 3.85008C27.6 3.23341 28.1334 2.78341 28.7667 2.51675C29.4 2.26675 29.9834 2.15008 30.5667 2.15008C31.3667 2.15008 32.1667 2.33341 32.9167 2.68341C33.6667 3.03341 34.3167 3.46675 34.9167 4.01675C35.9667 4.96675 36.7167 6.00008 37.2 7.20008C37.6667 8.35008 37.9167 9.60008 37.9167 10.9167ZM4.58337 30.6834C4.58337 31.6001 4.98337 32.4501 5.78337 33.2667C6.50004 34.0334 7.28337 34.5667 8.13337 34.9001C9.00004 35.2501 9.91671 35.4167 10.9 35.4167C12.45 35.4167 14.1334 35.0501 15.8667 34.3167C17.6334 33.5667 19.4667 32.5167 21.3 31.1834C23.1334 29.8501 24.9167 28.3334 26.6 26.6667C28.25 25.0001 29.7834 23.2001 31.1334 21.3501C32.45 19.5501 33.5167 17.7001 34.2834 15.8667C35.5 13.0167 35.7834 10.3501 34.8667 8.15008C34.5167 7.30008 33.9834 6.55008 33.2167 5.86675C32.8 5.48341 32.35 5.18341 31.8167 4.93341C31.4 4.73341 30.9667 4.63342 30.5334 4.63342C30.2667 4.63342 30 4.68341 29.7 4.81675C29.6 4.86674 29.4167 4.96675 29.2 5.28341L25.2667 10.8167C25.0334 11.1501 24.8667 11.4501 24.75 11.7334C24.6 12.1001 24.45 12.2501 24.8 12.8167C24.9667 13.1501 25.2167 13.4501 25.55 13.7834L26.8 15.0501C27.4334 15.7001 27.5834 16.7001 27.3 17.4667L27.1 17.9167C26.7334 18.6001 26.1667 19.4001 25.4167 20.2834C24.7334 21.0834 23.9334 21.9501 22.9 23.0001C22.0667 23.8167 21.1834 24.6334 20.2 25.4834C19.2834 26.2667 18.5 26.8334 17.85 27.1834L17.35 27.3834C16.9667 27.4834 16.75 27.5167 16.5167 27.5167C15.9167 27.5167 15.3834 27.3001 14.9667 26.8834L13.6667 25.6334C13.3334 25.3001 13.0167 25.0501 12.7334 24.8834C12.5167 24.7501 12.3334 24.7001 12.1667 24.7001C12.0334 24.7001 11.8334 24.7501 11.6334 24.8334C11.3667 24.9501 11.0667 25.1334 10.75 25.3667L5.28337 29.2334C5.05004 29.4001 4.88337 29.6001 4.76671 29.8501C4.65004 30.1167 4.58337 30.4001 4.58337 30.6834ZM25.0167 16.7501L26.15 17.0167L24.9834 16.5667C24.9667 16.6501 24.9834 16.7167 25.0167 16.7501Z" fill="#041461"/>
<path d="M16.25 9.16667C16.25 9.85 15.6833 10.4167 15 10.4167C14.4 10.4167 13.15 11.0167 12.0833 12.0167C11.0333 13 10.4166 14.0833 10.4166 15C10.4166 15.6833 9.84996 16.25 9.16663 16.25C8.48329 16.25 7.91663 15.6833 7.91663 15C7.91663 13.3833 8.78329 11.6833 10.3666 10.2C11.85 8.81667 13.6666 7.91667 15 7.91667C15.6833 7.91667 16.25 8.48333 16.25 9.16667Z" fill="#041461"/>
<path d="M16.25 3.33333C16.25 4.01667 15.6834 4.58333 15 4.58333C9.25004 4.58333 4.58337 9.25 4.58337 15C4.58337 15.6833 4.01671 16.25 3.33337 16.25C2.65004 16.25 2.08337 15.6833 2.08337 15C2.08337 7.88333 7.88337 2.08333 15 2.08333C15.6834 2.08333 16.25 2.65 16.25 3.33333Z" fill="#041461"/>
</svg>
