<svg width="150" height="150" viewBox="0 0 150 150" fill="none" xmlns="http://www.w3.org/2000/svg">
  <circle cx="75" cy="75" r="74.5" stroke="white"/>
  <path d="M64.8 7.2H53.388L46.8 0H25.2L18.612 7.2H7.2C3.24 7.2 0 10.44 0 14.4V57.6C0 61.56 3.24 64.8 7.2 64.8H64.8C68.76 64.8 72 61.56 72 57.6V14.4C72 10.44 68.76 7.2 64.8 7.2ZM64.8 57.6H7.2V14.4H21.78L28.368 7.2H43.632L50.22 14.4H64.8V57.6ZM36 18C26.064 18 18 26.064 18 36C18 45.936 26.064 54 36 54C45.936 54 54 45.936 54 36C54 26.064 45.936 18 36 18ZM36 46.8C30.06 46.8 25.2 41.94 25.2 36C25.2 30.06 30.06 25.2 36 25.2C41.94 25.2 46.8 30.06 46.8 36C46.8 41.94 41.94 46.8 36 46.8Z" fill="white"/>
</svg>
