<svg width="150" height="150" viewBox="0 0 150 150" fill="none" xmlns="http://www.w3.org/2000/svg">
<circle cx="75" cy="75" r="74.5" stroke="white"/>
<path d="M113.618 26C90.5553 42.2608 62.5589 49.982 28.4413 49.0087L27.7438 52.4235C64.4446 53.4494 91.5483 47.4738 115.979 28.5565L113.618 26ZM118.621 33.3904L102.349 43.0327L119.429 55.7535L118.621 33.3904ZM97.4393 45.3758L79.6369 51.0678L93.818 67.4128L97.4393 45.3758ZM72.5844 52.7761L54.2152 55.7072L66.1187 74.0433L72.5844 52.7761ZM46.7924 56.1887L28.232 56.7971L38.0764 76.5009L46.7924 56.1887ZM26 79.687V83.0957C70.7826 96.2896 101.884 101.091 122.605 101.843L124 98.4348C103.412 97.6845 71.077 93.0266 26 79.687ZM36.1344 90.3694L40.7869 112.18L54.1817 95.0818L36.1344 90.3694ZM65.3516 98.1866L71.1435 119.678L83.6172 101.788L65.3516 98.1866ZM94.9627 103.284L102.819 124L113.479 104.796L94.9627 103.284Z" fill="white"/>
</svg>
