<svg width="150" height="150" viewBox="0 0 150 150" fill="none" xmlns="http://www.w3.org/2000/svg">
<circle cx="75" cy="75" r="74.5" stroke="white"/>
<path d="M125.877 120.851L119.257 99.469V66.194H119.257C119.249 65.4544 118.95 64.7632 118.452 64.3315L74.7943 26.4688C74.7917 26.467 74.7326 26.4175 74.7197 26.4079C74.0664 25.8694 73.1775 25.8486 72.4981 26.438L28.805 64.3312C28.3067 64.7632 28.0082 65.4541 28.0002 66.1937C27.9919 66.9334 28.275 67.6339 28.7637 68.0815L50.9338 88.4096V96.3535C50.9338 104.571 62.6166 109.005 73.6089 109.005C84.62 109.005 96.3227 104.571 96.3227 96.3535V88.4096L115.386 70.9301V99.4687L108.765 120.851C108.392 122.058 108.9 123.402 109.901 123.852C110.124 123.952 110.353 124 110.578 124C111.362 124 112.101 123.421 112.391 122.482L115.386 112.81V121.666C115.386 122.955 116.252 123.999 117.321 123.999C118.39 123.999 119.257 122.955 119.257 121.666V112.811L122.251 122.482C122.542 123.421 123.28 124 124.064 124C124.289 124 124.518 123.952 124.741 123.852C125.742 123.402 126.251 122.058 125.877 120.851ZM92.4523 96.3535C92.4523 99.6096 85.1116 104.339 73.6089 104.339C61.9584 104.339 54.8043 99.6883 54.8043 96.3535V92.4592C56.8458 86.6512 64.8496 82.3142 73.6476 82.3142C82.432 82.3142 90.4195 86.6509 92.4523 92.4579V96.3535ZM92.4523 84.9743C88.1811 80.5117 81.2117 77.6485 73.6476 77.6485C66.068 77.6485 59.0829 80.5157 54.8043 84.9834V79.5446C54.8043 72.4231 63.4335 66.4065 73.6476 66.4065C83.8408 66.4065 92.4523 72.4231 92.4523 79.5446V84.9743ZM96.3227 82.5478V79.545C96.3227 74.5747 93.8397 69.9848 89.3311 66.6214C85.1118 63.4742 79.542 61.741 73.6476 61.741C67.7511 61.741 62.1749 63.4739 57.9463 66.6205C53.4241 69.9851 50.9336 74.5753 50.9336 79.5453V82.5481L33.1886 66.2774L73.6285 31.2049L114.068 66.2771L96.3227 82.5478Z" fill="white"/>
</svg>
