<svg width="150" height="150" viewBox="0 0 150 150" fill="none" xmlns="http://www.w3.org/2000/svg">
<path d="M121.154 80.3083C119.527 79.4917 117.087 79.0833 115.461 79.9L111.394 81.5333V32.5333C111.394 28.8583 108.548 26 105.295 26H97.1618C93.9087 26 91.0622 28.8583 91.0622 32.125V38.25H80.8963C77.6432 38.25 74.7967 41.1083 74.7967 44.375V58.6667H64.6307C61.3776 58.6667 58.5311 61.525 58.5311 64.7917V86.025L46.332 88.8833V87.6583C46.332 85.2083 45.112 83.1667 43.0788 82.35L38.1992 79.9C37.3859 77.0417 34.9461 75 32.0996 75H28.0332C26.8133 75 26 75.8167 26 77.0417V121.958C26 123.183 26.8133 124 28.0332 124H32.0996C34.9461 124 37.3859 121.958 38.1992 119.1L43.0788 116.65C44.7054 115.833 45.9253 113.792 46.332 111.75L65.8506 123.183C66.6639 123.592 67.8838 124 69.1037 124C69.917 124 71.1369 123.592 71.9502 123.183L120.747 97.05C122.78 95.825 124 93.7833 124 91.7417V85.6167C123.593 83.575 122.78 81.5333 121.154 80.3083ZM34.1328 117.875C34.1328 119.1 33.3195 119.917 32.0996 119.917H30.0664V79.0833H32.0996C33.3195 79.0833 34.1328 79.9 34.1328 81.125V117.875ZM42.2656 111.342C42.2656 112.158 41.8589 112.975 41.0456 112.975L38.1992 114.608V84.3917L41.0456 86.025C41.8589 86.4333 42.2656 86.8417 42.2656 87.6583V111.342ZM95.1286 32.125C95.1286 30.9 95.9419 30.0833 97.1618 30.0833H105.295C106.515 30.0833 107.328 30.9 107.328 32.125V82.7583L95.1286 87.25V32.125ZM78.8631 44.375C78.8631 43.15 79.6763 42.3333 80.8963 42.3333H91.0622V88.8833L85.3693 90.925L84.1494 86.4333C83.3361 83.9833 81.3029 82.35 79.2697 81.9417V44.375H78.8631ZM62.5975 64.7917C62.5975 63.5667 63.4108 62.75 64.6307 62.75H74.7967V82.35L62.5975 85.2083V64.7917ZM119.527 91.3333C119.527 92.15 119.12 92.9667 118.307 92.9667L69.5104 119.508C69.1037 119.917 68.2905 119.917 67.4772 119.508L46.332 107.258V92.9667L77.6432 86.025C78.8631 85.6167 79.6763 86.4333 80.083 87.6583L82.1162 94.1917C82.1162 94.6 82.1162 95.4167 82.1162 95.825C81.7095 96.2333 81.3029 96.6417 80.8963 96.6417L68.6971 99.5C67.4772 99.9083 67.0705 100.725 67.0705 101.95C67.4772 102.767 68.2905 103.583 69.1037 103.583H69.5104L81.7095 100.725C83.3361 100.317 84.556 99.0917 85.3693 97.8667C85.7759 97.05 86.1826 96.2333 86.1826 95.4167L117.087 83.9833C117.9 83.575 118.307 83.9833 119.12 84.3917C119.527 84.8 119.934 85.2083 119.934 86.025V91.3333H119.527Z" fill="white"/>
<circle cx="75" cy="75" r="74.5" stroke="white"/>
</svg>
