<svg width="48" height="48" viewBox="0 0 48 48" fill="none" xmlns="http://www.w3.org/2000/svg">
<rect width="48" height="48" rx="4" fill="#041461"/>
<path d="M30.5867 15.76C29.6752 14.7195 29.173 13.3832 29.1733 12H25.0533V28.5333C25.0216 29.428 24.6438 30.2755 23.9997 30.8973C23.3555 31.519 22.4953 31.8665 21.6 31.8667C19.7067 31.8667 18.1333 30.32 18.1333 28.4C18.1333 26.1067 20.3467 24.3867 22.6267 25.0933V20.88C18.0267 20.2667 14 23.84 14 28.4C14 32.84 17.68 36 21.5867 36C25.7733 36 29.1733 32.6 29.1733 28.4V20.0133C30.844 21.2131 32.8498 21.8569 34.9067 21.8533V17.7333C34.9067 17.7333 32.4 17.8533 30.5867 15.76Z" fill="white"/>
</svg>
