<svg width="48" height="48" viewBox="0 0 48 48" fill="none" xmlns="http://www.w3.org/2000/svg">
<rect width="48" height="48" rx="4" fill="#041461"/>
<path d="M39 14.8438C37.8747 15.3327 36.684 15.6549 35.4656 15.8C36.746 15.0502 37.709 13.8591 38.1737 12.45C36.9632 13.1579 35.641 13.6546 34.2638 13.9188C33.6838 13.311 32.9863 12.8275 32.2137 12.4976C31.4411 12.1678 30.6095 11.9985 29.7694 12C26.3681 12 23.6156 14.7125 23.6156 18.0563C23.6132 18.5214 23.6665 18.9851 23.7744 19.4375C21.3354 19.3232 18.9472 18.701 16.7625 17.6108C14.5778 16.5206 12.6447 14.9864 11.0869 13.1063C10.5404 14.0276 10.2513 15.0788 10.25 16.15C10.25 18.25 11.3456 20.1063 13 21.1938C12.0198 21.1705 11.0597 20.9111 10.2013 20.4375V20.5125C10.2013 23.45 12.3263 25.8938 15.1388 26.45C14.6099 26.591 14.0649 26.6624 13.5175 26.6625C13.1291 26.6632 12.7416 26.6255 12.3606 26.55C13.1425 28.9563 15.4181 30.7063 18.1138 30.7563C15.9234 32.4443 13.2341 33.3567 10.4688 33.35C9.97789 33.3493 9.48748 33.3201 9 33.2625C11.8132 35.0589 15.0834 36.0091 18.4213 36C29.7563 36 35.9487 26.7688 35.9487 18.7625C35.9487 18.5 35.9419 18.2375 35.9294 17.9813C37.1313 17.1263 38.1711 16.0638 39 14.8438Z" fill="white"/>
</svg>
