<svg width="48" height="48" viewBox="0 0 48 48" fill="none" xmlns="http://www.w3.org/2000/svg">
<path d="M37 25.5C36.18 25.5 35.5 24.82 35.5 24C35.5 17.66 30.34 12.5 24 12.5C17.66 12.5 12.5 17.66 12.5 24C12.5 24.82 11.82 25.5 11 25.5C10.18 25.5 9.5 24.82 9.5 24C9.5 16 16 9.5 24 9.5C32 9.5 38.5 16 38.5 24C38.5 24.82 37.82 25.5 37 25.5Z" fill="white"/>
<path d="M44 26H43.84C42.74 26 41.84 25.1 41.84 24C41.84 22.9 42.74 22 43.84 22C44.94 22 45.92 22.9 45.92 24C45.92 25.1 45.1 26 44 26ZM4.16003 26H4C2.9 26 2 25.1 2 24C2 22.9 2.9 22 4 22C5.1 22 6.07996 22.9 6.07996 24C6.07996 25.1 5.26003 26 4.16003 26ZM38.02 11.98C37.5 11.98 37 11.78 36.6 11.4C35.82 10.62 35.82 9.36002 36.6 8.58002L36.86 8.32001C37.64 7.54001 38.9001 7.54001 39.6801 8.32001C40.4601 9.10001 40.4601 10.36 39.6801 11.14L39.42 11.4C39.04 11.78 38.54 11.98 38.02 11.98ZM9.97998 11.98C9.45998 11.98 8.96006 11.78 8.56006 11.4L8.30005 11.14C7.52005 10.36 7.52005 9.10001 8.30005 8.32001C9.08005 7.54001 10.34 7.54001 11.12 8.32001L11.38 8.58002C12.16 9.36002 12.16 10.62 11.38 11.4C11 11.78 10.48 11.98 9.97998 11.98ZM24 6.08002C22.9 6.08002 22 5.25997 22 4.15997V4C22 2.9 22.9 2 24 2C25.1 2 26 2.9 26 4C26 5.1 25.1 6.08002 24 6.08002Z" fill="white"/>
<path d="M40 31.5H8C7.18 31.5 6.5 30.82 6.5 30C6.5 29.18 7.18 28.5 8 28.5H40C40.82 28.5 41.5 29.18 41.5 30C41.5 30.82 40.82 31.5 40 31.5Z" fill="white"/>
<path d="M36 37.5H12C11.18 37.5 10.5 36.82 10.5 36C10.5 35.18 11.18 34.5 12 34.5H36C36.82 34.5 37.5 35.18 37.5 36C37.5 36.82 36.82 37.5 36 37.5Z" fill="white"/>
<path d="M30 43.5H18C17.18 43.5 16.5 42.82 16.5 42C16.5 41.18 17.18 40.5 18 40.5H30C30.82 40.5 31.5 41.18 31.5 42C31.5 42.82 30.82 43.5 30 43.5Z" fill="white"/>
</svg>
