<svg width="150" height="150" viewBox="0 0 150 150" fill="none" xmlns="http://www.w3.org/2000/svg">
<g clip-path="url(#clip0_1_7520)">
<path d="M111.8 56.6388H91.4171V51.8603L92.6019 52.3623C92.863 52.4828 93.124 52.523 93.3851 52.523C94.1683 52.523 94.9113 52.0613 95.2326 51.2982C95.6744 50.2742 95.1925 49.0896 94.1884 48.668L91.4171 47.4834V42.3834C91.4171 41.2791 90.5134 40.3756 89.4089 40.3756C88.3044 40.3756 87.4007 41.2791 87.4007 42.3834V45.7566L66.7765 36.9022L68.7646 31.0797C69.0257 30.3368 68.8048 29.5137 68.2425 28.9714C64.7482 25.6585 59.6474 25.0563 55.5707 27.4657C55.5507 27.4657 55.5507 27.4858 55.5306 27.4858C51.5343 29.9553 49.6667 34.754 50.9921 39.1309C51.6347 41.3395 53.2212 43.2871 55.4503 44.6324C57.358 45.7768 59.5871 46.3992 61.756 46.3992C61.8966 46.3992 62.0572 46.3992 62.1978 46.3992C63.0212 46.359 63.7441 45.817 64.0253 45.0338L65.4912 40.717L87.4007 50.1336V56.6388H38.1998C37.0953 56.6388 36.1917 57.5423 36.1917 58.6466V70.9142C36.1917 72.0186 37.0953 72.922 38.1998 72.922H50.6105V121.832C50.6105 122.936 51.5142 123.84 52.6187 123.84C53.7232 123.84 54.6269 122.936 54.6269 121.832V72.922H95.5339V121.992C95.5339 123.097 96.4376 124 97.5421 124C98.6466 124 99.5503 123.097 99.5503 121.992V72.922H111.8C112.905 72.922 113.808 72.0186 113.808 70.9142V58.6466C113.808 57.5423 112.905 56.6388 111.8 56.6388ZM60.6917 42.3231C58.1814 41.9817 55.5306 40.4158 54.8277 38.0063V37.9862C54.0244 35.3561 55.1691 32.4649 57.6191 30.9389C59.788 29.6739 62.4187 29.7743 64.4871 31.1397L60.6917 42.3231ZM109.792 68.9064H40.208V60.6544H109.792V68.9064Z" fill="white"/>
</g>
<circle cx="75" cy="75" r="74.5" stroke="white"/>
<defs>
<clipPath id="clip0_1_7520">
<rect width="98" height="98" fill="white" transform="translate(26 26)"/>
</clipPath>
</defs>
</svg>
