<svg width="32" height="32" viewBox="0 0 32 32" fill="none" xmlns="http://www.w3.org/2000/svg">
<path d="M22.8782 9.12501C22.3582 8.6049 22.0538 7.90767 22.0257 7.17278C21.9977 6.43788 22.2481 5.71949 22.7269 5.16126C22.7665 5.11483 22.7871 5.05516 22.7846 4.99419C22.782 4.93322 22.7565 4.87547 22.7132 4.83251L19.955 2.07126C19.9095 2.02569 19.8476 2.00009 19.7832 2.00009C19.7187 2.00009 19.6569 2.02569 19.6113 2.07126L15.215 6.46751C15.0528 6.62967 14.9306 6.8274 14.8582 7.04501C14.786 7.26312 14.6639 7.46141 14.5017 7.62414C14.3395 7.78687 14.1417 7.90957 13.9238 7.98251C13.706 8.05507 13.5081 8.17724 13.3457 8.33939L2.07129 19.6113C2.02572 19.6569 2.00012 19.7187 2.00012 19.7831C2.00012 19.8476 2.02572 19.9094 2.07129 19.955L4.82942 22.7131C4.87237 22.7565 4.93013 22.782 4.99109 22.7845C5.05206 22.7871 5.11174 22.7665 5.15817 22.7269C5.71627 22.2476 6.43483 21.9968 7.16998 22.0246C7.90513 22.0525 8.60262 22.357 9.12282 22.8772C9.64303 23.3974 9.94755 24.0949 9.97543 24.8301C10.0033 25.5652 9.75248 26.2838 9.27317 26.8419C9.23357 26.8883 9.21298 26.948 9.21553 27.009C9.21808 27.0699 9.24358 27.1277 9.28692 27.1706L12.045 29.9288C12.0906 29.9743 12.1525 29.9999 12.2169 29.9999C12.2814 29.9999 12.3432 29.9743 12.3888 29.9288L23.6638 18.6544C23.8259 18.4919 23.9481 18.294 24.0207 18.0763C24.0929 17.8582 24.2149 17.6599 24.3771 17.4971C24.5393 17.3344 24.7372 17.2117 24.955 17.1388C25.1727 17.0663 25.3704 16.9441 25.5325 16.7819L29.9288 12.3856C29.9744 12.34 30 12.2782 30 12.2138C30 12.1493 29.9744 12.0875 29.9288 12.0419L27.1707 9.28376C27.1277 9.24042 27.07 9.21492 27.009 9.21237C26.948 9.20982 26.8883 9.23041 26.8419 9.27001C26.2845 9.74962 25.5665 10.0011 24.8316 9.97424C24.0967 9.94736 23.3991 9.64407 22.8782 9.12501Z" stroke="#041461" stroke-width="2" stroke-miterlimit="10"/>
<path d="M15.6563 8.77751L15.3783 8.50003M18.4075 11.5288L17.7194 10.8413M21.1588 14.2806L20.4713 13.5925M23.5004 16.6216L23.2225 16.3438" stroke="#9BA1C0" stroke-miterlimit="10" stroke-linecap="round"/>
</svg>
