<svg width="48" height="48" viewBox="0 0 48 48" fill="none" xmlns="http://www.w3.org/2000/svg">
<path d="M10 43.74C8.52001 43.74 7.06001 43.18 5.94001 42.06C4.86001 40.98 4.26001 39.54 4.26001 38C4.26001 36.46 4.86001 35.02 5.94001 33.94L31.94 7.94001C34.18 5.70001 37.82 5.70001 40.06 7.94001C41.14 9.02001 41.74 10.46 41.74 12C41.74 13.54 41.14 14.98 40.06 16.06L14.06 42.06C12.94 43.18 11.48 43.74 10 43.74ZM36 9.26001C35.3 9.26001 34.6 9.52001 34.06 10.06L8.06001 36.06C7.54001 36.58 7.26001 37.26 7.26001 38C7.26001 38.74 7.54001 39.42 8.06001 39.94C9.12001 41 10.88 41 11.94 39.94L37.94 13.94C38.46 13.42 38.74 12.74 38.74 12C38.74 11.26 38.46 10.58 37.94 10.06C37.4 9.52001 36.7 9.26001 36 9.26001Z" fill="white"/>
<path d="M36.02 19.48C35.64 19.48 35.26 19.34 34.96 19.04L28.96 13.04C28.38 12.46 28.38 11.5 28.96 10.92C29.54 10.34 30.5 10.34 31.08 10.92L37.08 16.92C37.66 17.5 37.66 18.46 37.08 19.04C36.78 19.34 36.4 19.48 36.02 19.48Z" fill="white"/>
<path d="M20 11C19.9 11 19.82 10.98 19.72 10.96L17 10.16L14.28 10.96C13.92 11.06 13.54 10.96 13.3 10.7C13.04 10.44 12.94 10.08 13.04 9.71998L13.84 6.99998L13.04 4.27998C12.94 3.91998 13.04 3.53998 13.3 3.29998C13.56 3.03998 13.94 2.93998 14.28 3.03998L17 3.83998L19.72 3.03998C20.08 2.93998 20.44 3.03998 20.7 3.29998C20.96 3.55998 21.06 3.93998 20.96 4.27998L20.16 6.99998L20.96 9.71998C21.06 10.08 20.96 10.46 20.7 10.7C20.52 10.9 20.26 11 20 11ZM17 8.11998C17.1 8.11998 17.18 8.13998 17.28 8.15998L18.52 8.51998L18.16 7.27998C18.1 7.09998 18.1 6.89998 18.16 6.71998L18.52 5.47998L17.28 5.83998C17.1 5.89998 16.9 5.89998 16.72 5.83998L15.48 5.47998L15.84 6.71998C15.9 6.89998 15.9 7.09998 15.84 7.27998L15.48 8.51998L16.72 8.15998C16.82 8.13998 16.9 8.11998 17 8.11998Z" fill="white"/>
<path d="M12 23C11.9 23 11.82 22.98 11.72 22.96L8.99998 22.16L6.27998 22.96C5.91998 23.06 5.55998 22.96 5.29998 22.7C5.03998 22.44 4.93998 22.06 5.03998 21.72L5.83998 19L5.03998 16.28C4.93998 15.92 5.03998 15.54 5.29998 15.3C5.55998 15.06 5.93998 14.94 6.27998 15.04L8.99998 15.84L11.72 15.04C12.06 14.94 12.44 15.04 12.7 15.3C12.96 15.56 13.06 15.94 12.96 16.28L12.16 19L12.96 21.72C13.06 22.08 12.96 22.46 12.7 22.7C12.52 22.9 12.26 23 12 23ZM8.99998 20.12C9.09998 20.12 9.17998 20.14 9.27998 20.16L10.52 20.52L10.16 19.28C10.1 19.1 10.1 18.9 10.16 18.72L10.52 17.48L9.27998 17.84C9.09998 17.9 8.89998 17.9 8.71998 17.84L7.47998 17.48L7.83998 18.72C7.89998 18.9 7.89998 19.1 7.83998 19.28L7.47998 20.52L8.71998 20.16C8.81998 20.14 8.89998 20.12 8.99998 20.12Z" fill="white"/>
<path d="M42 33C41.9 33 41.82 32.98 41.72 32.96L39 32.16L36.28 32.96C35.92 33.06 35.56 32.96 35.3 32.7C35.04 32.44 34.94 32.06 35.04 31.72L35.84 29L35.04 26.28C34.94 25.92 35.04 25.54 35.3 25.3C35.56 25.06 35.94 24.94 36.28 25.04L39 25.84L41.72 25.04C42.06 24.94 42.44 25.04 42.7 25.3C42.96 25.56 43.06 25.94 42.96 26.28L42.16 29L42.96 31.72C43.06 32.08 42.96 32.46 42.7 32.7C42.52 32.9 42.26 33 42 33ZM39 30.12C39.1 30.12 39.18 30.14 39.28 30.16L40.52 30.52L40.16 29.28C40.1 29.1 40.1 28.9 40.16 28.72L40.52 27.48L39.28 27.84C39.1 27.9 38.9 27.9 38.72 27.84L37.48 27.48L37.84 28.72C37.9 28.9 37.9 29.1 37.84 29.28L37.48 30.52L38.72 30.16C38.82 30.14 38.9 30.12 39 30.12Z" fill="white"/>
</svg>
